<svg id="Group_1126" data-name="Group 1126" xmlns="http://www.w3.org/2000/svg" width="31.373" height="19.004" viewBox="0 0 31.373 19.004">
  <path id="Path_383" data-name="Path 383" d="M4.755,0H26.619a4.767,4.767,0,0,1,4.755,4.755v1.48H0V4.755A4.77,4.77,0,0,1,4.755,0Z" fill="#801c17"/>
  <path id="Path_384" data-name="Path 384" d="M476.658,274.5v-1.8H474.69v1.8H472.9v1.968h1.79v1.79h1.968v-1.79h1.79V274.5Zm-.158.158v1.652h-1.652v-1.652Z" transform="translate(-449.576 -259.25)" fill="#d19050"/>
  <path id="Path_385" data-name="Path 385" d="M335.763,274.5v-1.8H333.8v1.8H332v1.968h1.8v1.79h1.968v-1.79h1.79V274.5Zm-.158.158v1.652h-1.652v-1.652Z" transform="translate(-315.625 -259.25)" fill="#d19050"/>
  <path id="Path_386" data-name="Path 386" d="M195.163,274.5v-1.8H193.2v1.8h-1.8v1.968h1.8v1.79h1.968v-1.79h1.79V274.5Zm-.158.158v1.652h-1.652v-1.652Z" transform="translate(-181.96 -259.25)" fill="#d19050"/>
  <path id="Path_387" data-name="Path 387" d="M54.463,274.5v-1.8H52.5v1.8H50.7v1.968h1.79v1.79h1.973v-1.79h1.8V274.5Zm-.158.158v1.652H52.653v-1.652Z" transform="translate(-48.199 -259.25)" fill="#d19050"/>
  <path id="Path_388" data-name="Path 388" d="M33.537,166.2a4.769,4.769,0,0,1-4.636,3.694H7.036A4.769,4.769,0,0,1,2.4,166.2Z" transform="translate(-2.282 -158.003)" fill="#801c17"/>
</svg>
