<svg xmlns="http://www.w3.org/2000/svg" width="auto" height="20" viewBox="0 0 33.863 33.864">
  <g id="noun_Airport_3509455" transform="translate(-3.165 -3.163)">
    <path id="Path_213" data-name="Path 213" d="M30.267,15.42l5.277-5.277a3.857,3.857,0,0,0-5.455-5.456L24.811,9.966,9.019,5.523a1.7,1.7,0,0,0-1.5.393L5.663,7.77a.643.643,0,0,0,.15,1.072l12.939,7.182-6.146,6.146-5.92-.536a2.192,2.192,0,0,0-1.531.555L3.392,23.953a.664.664,0,0,0,.138,1.093l7.328,4.33L15.186,36.7a.664.664,0,0,0,1.093.138l1.762-1.763a2.184,2.184,0,0,0,.555-1.531l-.536-5.92,6.147-6.147,7.182,12.939a.642.642,0,0,0,1.072.15l1.854-1.854a1.7,1.7,0,0,0,.393-1.5Z" transform="translate(0 -0.04)" fill="#d19050"/>
    <path id="Path_214" data-name="Path 214" d="M17.482,5.834A1.564,1.564,0,0,0,15.27,3.621L13.96,4.932l3.453.972Z" transform="translate(-1.091 0)" fill="#d19050"/>
    <path id="Path_215" data-name="Path 215" d="M23.889,7.528a1.564,1.564,0,1,0-2.211-2.212L20.29,6.7l3.453.972Z" transform="translate(-1.731 -0.171)" fill="#d19050"/>
    <path id="Path_216" data-name="Path 216" d="M40.069,26.069a1.564,1.564,0,0,0-2.212,0l-.069.069.972,3.453,1.31-1.31A1.564,1.564,0,0,0,40.069,26.069Z" transform="translate(-3.5 -2.269)" fill="#d19050"/>
    <path id="Path_217" data-name="Path 217" d="M36.155,19.654l-.147.147.972,3.453,1.387-1.387a1.564,1.564,0,0,0-2.211-2.213Z" transform="translate(-3.32 -1.621)" fill="#d19050"/>
  </g>
</svg>
