<svg id="Group_952" data-name="Group 952" xmlns="http://www.w3.org/2000/svg" width="auto" height="25" viewBox="0 0 42.335 42.161">
  <path id="XMLID_95_" d="M95.047,39.926a.567.567,0,0,0-.249-.5L92.3,37.806l-.062-2.994a.469.469,0,0,0-.312-.437.606.606,0,0,0-.561.062L89.06,36.309l-2.869-.873a.636.636,0,0,0-.561.125.6.6,0,0,0-.125.561l1.06,2.807L84.944,41.3a.468.468,0,0,0,0,.561.458.458,0,0,0,.5.249l2.994-.125,1.809,2.37a.566.566,0,0,0,.437.187h.125c.187-.062.374-.187.374-.374l.748-2.869,2.807-1C94.86,40.3,94.985,40.113,95.047,39.926Zm-3.742.5a.4.4,0,0,0-.312.374l-.561,2.121-1.31-1.746a.566.566,0,0,0-.437-.187h0l-2.183.125L87.75,39.3a.471.471,0,0,0,.062-.5L87,36.745l2.121.624a.7.7,0,0,0,.5-.062l1.684-1.372.062,2.183a.471.471,0,0,0,.249.437l1.809,1.185Z" transform="translate(-84.545 -12.921)" fill="#d19050"/>
  <path id="XMLID_90_" d="M90.435,44.726a.768.768,0,0,1-.624-.312l-1.746-2.245-2.869.125a.975.975,0,0,1-.748-.374.767.767,0,0,1,.062-.811L86.131,38.8l-1-2.682a.68.68,0,0,1,.187-.811.756.756,0,0,1,.811-.187l2.744.811,2.183-1.746a.784.784,0,0,1,.811-.125.767.767,0,0,1,.437.686l.062,2.807,2.37,1.559a.889.889,0,0,1,.374.748h0a.758.758,0,0,1-.5.624l-2.682.936-.748,2.744a.732.732,0,0,1-.624.561Zm-2.121-3.118L90.185,44.1c.062.062.125.125.187.125a.278.278,0,0,0,.249-.187l.811-2.994,2.931-1c.062-.062.187-.125.187-.187a.324.324,0,0,0-.125-.249l-2.619-1.684-.062-3.118a.324.324,0,0,0-.125-.249c-.062-.062-.187,0-.249.062l-2.432,1.933-2.994-.936c-.125,0-.187,0-.249.062a.375.375,0,0,0-.062.249l1.123,2.931L85.009,41.42a.19.19,0,0,0,0,.249.324.324,0,0,0,.249.125Zm2,1.746-1.684-2.183c-.062-.062-.125-.125-.187-.125l-2.744.125,1.559-2.183a.19.19,0,0,0,0-.249l-1-2.557,2.619.811a.375.375,0,0,0,.249-.062l2.12-1.684.062,2.744c0,.062.062.187.125.187l2.308,1.5-2.557.873c-.062,0-.125.125-.187.187Zm-1.933-2.807a.768.768,0,0,1,.624.312l1,1.31.437-1.622a.885.885,0,0,1,.5-.561l1.559-.561-1.372-.936a.827.827,0,0,1-.374-.624l-.062-1.684-1.31,1.06a.705.705,0,0,1-.686.125l-1.622-.5.624,1.559a1.043,1.043,0,0,1-.062.748l-.936,1.372Z" transform="translate(-84.361 -12.793)" fill="#d19050"/>
  <path id="XMLID_89_" d="M99.711,48.262a.545.545,0,1,0-.561.936A12.482,12.482,0,0,1,104.7,59.551a.509.509,0,0,0,.5.561h0a.492.492,0,0,0,.5-.5A12.954,12.954,0,0,0,99.711,48.262Z" transform="translate(-89.832 -18.139)" fill="#d19050"/>
  <path id="XMLID_86_" d="M105.108,60.146a.786.786,0,0,1-.811-.811,12.121,12.121,0,0,0-5.426-10.1.77.77,0,1,1,.811-1.31h0a13.533,13.533,0,0,1,6.174,11.538A.749.749,0,0,1,105.108,60.146ZM99.245,48.3a.473.473,0,0,0-.249.125c-.062.125-.062.312.062.374a12.592,12.592,0,0,1,5.675,10.6.268.268,0,0,0,.249.249h0a.268.268,0,0,0,.249-.249,13.115,13.115,0,0,0-5.925-11.039C99.37,48.3,99.308,48.3,99.245,48.3Z" transform="translate(-89.678 -17.985)" fill="#d19050"/>
  <path id="XMLID_83_" d="M143.682,38.828l1.06-2.807a.636.636,0,0,0-.125-.561.56.56,0,0,0-.561-.125l-2.869.873-2.308-1.871a.586.586,0,0,0-.561-.062.469.469,0,0,0-.312.437l-.062,2.994-2.495,1.622a.567.567,0,0,0-.249.5.535.535,0,0,0,.374.437l2.807,1,.748,2.869a.562.562,0,0,0,.374.374h.125a.566.566,0,0,0,.437-.187l1.809-2.37,2.994.125a.77.77,0,0,0,.5-.249.6.6,0,0,0,0-.561Zm-2,2.121a.566.566,0,0,0-.437.187l-1.31,1.746-.561-2.121a.639.639,0,0,0-.312-.374l-2.121-.686,1.809-1.185a.631.631,0,0,0,.25-.437l.062-2.183,1.684,1.372a.471.471,0,0,0,.5.062l2.121-.624-.811,2.058a.488.488,0,0,0,.062.5l1.247,1.809Z" transform="translate(-103.493 -12.883)" fill="#d19050"/>
  <path id="XMLID_77_" d="M139.57,44.726h-.125a.813.813,0,0,1-.624-.561l-.748-2.744-2.682-.936a.829.829,0,0,1-.5-.624.76.76,0,0,1,.374-.748l2.37-1.559.062-2.807a.767.767,0,0,1,.437-.686.784.784,0,0,1,.811.125l2.245,1.684,2.744-.811a.785.785,0,0,1,1,1l-1,2.682,1.622,2.308a.767.767,0,0,1,.062.811.711.711,0,0,1-.748.374l-2.807-.125-1.746,2.245A1.078,1.078,0,0,1,139.57,44.726Zm-1.123-10.291h-.125a.324.324,0,0,0-.125.249l-.062,3.118-2.619,1.684a.324.324,0,0,0-.125.249.165.165,0,0,0,.187.187l2.931,1,.811,3.056a.2.2,0,0,0,.187.187.324.324,0,0,0,.249-.125l1.871-2.495,3.118.125a.324.324,0,0,0,.249-.125.19.19,0,0,0,0-.249l-1.746-2.557,1.123-2.931c.062-.062,0-.187-.062-.249s-.187-.125-.249-.062l-2.994.936L138.635,34.5C138.572,34.5,138.51,34.435,138.448,34.435Zm1.247,8.919-.686-2.619q0-.094-.187-.187l-2.557-.873,2.308-1.5c.062-.062.125-.125.125-.187V35.246l2.121,1.684a.375.375,0,0,0,.249.062l2.619-.811-1,2.557v.249l1.559,2.245-2.744-.125c-.125,0-.187.062-.187.125Zm-2.308-3.8,1.559.561a.761.761,0,0,1,.5.561l.437,1.622,1-1.31a1,1,0,0,1,.686-.312l1.684.062-.935-1.372a.787.787,0,0,1-.062-.748l.624-1.559-1.622.5a.866.866,0,0,1-.686-.125l-1.31-1.06-.062,1.684a.686.686,0,0,1-.374.624Z" transform="translate(-103.372 -12.793)" fill="#d19050"/>
  <path id="XMLID_76_" d="M132.648,48.261a13.233,13.233,0,0,0-6.05,11.289.537.537,0,0,0,.5.5h0a.509.509,0,0,0,.5-.561,12.482,12.482,0,0,1,5.551-10.353.578.578,0,0,0,.187-.748A.552.552,0,0,0,132.648,48.261Z" transform="translate(-100.255 -18.137)" fill="#d19050"/>
  <path id="XMLID_73_" d="M127.009,60.108a.773.773,0,0,1-.811-.748,13.591,13.591,0,0,1,6.174-11.538h0a.77.77,0,0,1,.811,1.31,11.933,11.933,0,0,0-5.426,10.1.793.793,0,0,1-.748.873Zm5.613-11.788A12.992,12.992,0,0,0,126.7,59.36a.268.268,0,0,0,.249.249.228.228,0,0,0,.249-.249,12.652,12.652,0,0,1,5.675-10.6.235.235,0,0,0,.062-.374c0-.125-.187-.187-.312-.062Z" transform="translate(-100.104 -17.947)" fill="#d19050"/>
  <path id="XMLID_69_" d="M112.192,26.844a13.109,13.109,0,0,0,11.1-13.284A13.35,13.35,0,0,0,110.009.4a13,13,0,0,0-9.168,3.929,13.129,13.129,0,0,0-3.742,9.48,13.3,13.3,0,0,0,11.476,13.035l-.249.5a1.351,1.351,0,0,0,0,1.372,1.549,1.549,0,0,0,1.372.748h.187v12.1a.5.5,0,0,0,1,0v-12.1h.187a1.577,1.577,0,0,0,1.434-.811,1.24,1.24,0,0,0,0-1.31Zm-.561,1.31a.6.6,0,0,1-.561.249h-1.434a.486.486,0,0,1-.437-.187c-.062-.125-.062-.187.062-.374l.624-1.247a.689.689,0,0,0,0-.5.525.525,0,0,0-.437-.249,12.274,12.274,0,0,1-11.289-12.1,12.146,12.146,0,0,1,3.43-8.732,11.965,11.965,0,0,1,8.42-3.617h.125a12.192,12.192,0,0,1,12.1,12.1,12.082,12.082,0,0,1-10.977,12.286.631.631,0,0,0-.437.249.683.683,0,0,0,0,.5l.748,1.247C111.63,27.966,111.693,28.029,111.63,28.153Z" transform="translate(-89.153 -0.15)" fill="#d19050"/>
  <path id="XMLID_61_" d="M110.133,42.161a.826.826,0,0,1-.811-.811V29.562a1.684,1.684,0,0,1-1.5-2.495l.125-.187A13.639,13.639,0,0,1,96.6,13.659a13.414,13.414,0,0,1,3.8-9.667A12.977,12.977,0,0,1,109.758,0h.187a13.565,13.565,0,0,1,2.432,26.881l.125.249a1.416,1.416,0,0,1,0,1.559,2,2,0,0,1-1.622.936V41.412A.758.758,0,0,1,110.133,42.161Zm.748-13.6h-1.434a.8.8,0,0,1-.686-.312.582.582,0,0,1,.062-.624l.624-1.247a.19.19,0,0,0,0-.249c-.062-.062-.125-.125-.187-.125A12.542,12.542,0,0,1,97.721,13.659a12.181,12.181,0,0,1,3.555-8.919,11.944,11.944,0,0,1,8.607-3.68h.125a12.554,12.554,0,0,1,12.411,12.349,12.4,12.4,0,0,1-11.226,12.6c-.062,0-.187.062-.187.125a.19.19,0,0,0,0,.249l.748,1.247a.475.475,0,0,1,0,.5h0A1.465,1.465,0,0,1,110.881,28.565Zm-.936-27.005h-.125a11.732,11.732,0,0,0-8.233,3.555,11.859,11.859,0,0,0-3.368,8.544,12.052,12.052,0,0,0,11.039,11.85.827.827,0,0,1,.624.374.8.8,0,0,1,0,.748l-.624,1.247-.062.062a.365.365,0,0,0,.249.062h1.434a.477.477,0,0,0,.312-.125h0l-.748-1.247a.8.8,0,0,1,0-.748.9.9,0,0,1,.624-.437A11.815,11.815,0,0,0,121.8,13.409,11.966,11.966,0,0,0,109.945,1.559Zm11.226,11.663A11.039,11.039,0,1,1,110.133,2.183,11.02,11.02,0,0,1,121.172,13.222Z" transform="translate(-88.965 0)" fill="#d19050"/>
  <path id="XMLID_50_" d="M121.9,16.068A9.185,9.185,0,0,0,112.918,6.9h-.249a9.168,9.168,0,1,0,9.23,9.168Zm-9.168,8.108A8.117,8.117,0,0,1,110.672,8.21a2.58,2.58,0,0,0-.312,1.185,2.5,2.5,0,0,0,2.495,2.495,2.433,2.433,0,0,0,2.121-1.185.546.546,0,0,0-.936-.561,1.438,1.438,0,0,1-1.247.686,1.5,1.5,0,0,1-.062-2.994,8.16,8.16,0,0,1,8.045,8.108A8.029,8.029,0,0,1,112.73,24.176Z" transform="translate(-91.563 -2.596)" fill="#fff"/>
  <path id="XMLID_41_" d="M112.618,25.335a9.418,9.418,0,0,1,0-18.835h.249a9.419,9.419,0,0,1-.249,18.835Zm0-18.336a8.826,8.826,0,1,0,.187,0h-.187Zm0,17.276A8.362,8.362,0,0,1,110.559,7.81l.561-.125-.312.5a2.3,2.3,0,0,0-.312,1.06,2.236,2.236,0,0,0,2.245,2.245,2.3,2.3,0,0,0,1.933-1.06c.062-.125.062-.312-.062-.374s-.312-.062-.374.062A1.761,1.761,0,0,1,111,9.182a1.773,1.773,0,0,1,1.684-1.746,8.42,8.42,0,0,1-.062,16.839ZM110.123,8.5a7.783,7.783,0,1,0,2.619-.437,1.227,1.227,0,0,0-1.185,1.185,1.184,1.184,0,0,0,1.185,1.185,1.058,1.058,0,0,0,1-.561.77.77,0,1,1,1.31.811,2.764,2.764,0,0,1-5.114-1.434Z" transform="translate(-91.45 -2.446)" fill="#fff"/>
  <path id="XMLID_37_" d="M115.49,28.717a5.264,5.264,0,0,1-4.553-2.619.606.606,0,0,1-.062-.561.97.97,0,0,1,.374-.5.606.606,0,0,1,.561-.062.97.97,0,0,1,.5.374,3.776,3.776,0,0,0,3.181,1.871,3.572,3.572,0,0,0,3.181-1.871.775.775,0,0,1,.5-.374.834.834,0,0,1,.561.062.775.775,0,0,1,.374.5,1.078,1.078,0,0,1-.062.624A5.341,5.341,0,0,1,115.49,28.717ZM111.633,26.1c-.062,0-.071-.624-.134-.561s-.125.062-.125.187v.187a4.76,4.76,0,0,0,8.233,0c.062-.062-.233.062-.3,0,0-.062.233-.312.171-.374h0c-.062-.062.187.312.125.374-.062,0-.233.764-.3.827a2.244,2.244,0,0,0-.453.307c-.7,1.221-2.8,1.539-4.27,1.236a3.786,3.786,0,0,1-2.665-1.543l-.849-1.076h.176c-.062-.062.508-.312.383-.312C111.695,25.287,111.633,26.1,111.633,26.1Z" transform="translate(-94.323 -9.383)" fill="#fff"/>
  <path id="XMLID_33_" d="M112.4,19.356a.826.826,0,0,1-.811-.811.686.686,0,1,0-1.372,0,.811.811,0,1,1-1.622,0,2.245,2.245,0,1,1,4.49,0A.662.662,0,0,1,112.4,19.356Zm-1.434-2a1.184,1.184,0,0,1,1.185,1.185.268.268,0,0,0,.249.249c.125,0-.249.3-.249.178,0,0-.284-.883.18-.428s-1.365-.92-1.365-.92l-1.077.784-.732.658v-.522a.268.268,0,0,0,.249.249c.125,0,0-.483,0-.608C109.535,17.563,110.284,17.36,110.97,17.36Z" transform="translate(-93.482 -6.134)" fill="#fff"/>
  <path id="XMLID_30_" d="M124.2,19.356a.826.826,0,0,1-.811-.811.686.686,0,1,0-1.372,0,.811.811,0,0,1-1.622,0,2.245,2.245,0,1,1,4.49,0A.662.662,0,0,1,124.2,19.356Zm-1.434-2a1.184,1.184,0,0,1,1.185,1.185.249.249,0,0,0,.5,0l-.125.51-1.559-1.543-1.71,1.543-.1-.51a.249.249,0,1,0,.5,0A1.4,1.4,0,0,1,122.77,17.36Z" transform="translate(-97.923 -6.134)" fill="#fff"/>
</svg>
