<svg xmlns="http://www.w3.org/2000/svg" width="auto" height="25" viewBox="0 0 40.436 36.67">
  <g id="Group_60" data-name="Group 60" transform="translate(0)">
    <g id="Group_59" data-name="Group 59" transform="translate(0)">
      <path id="XMLID_42_" d="M34.083,34.1c-2.487,0-4.69-3.127-7.249-3.127S22.215,34.1,19.585,34.1s-4.477-3.127-7.249-3.127S8.144,34.1,5.585,34.1-.1,30.971-.1,30.971V41.418c0,4.193,4.122,4.193,4.122,4.193H36.072s4.122,0,4.122-4.193V30.9c.071,0-3.624,3.2-6.112,3.2Z" transform="translate(0.1 -8.941)" fill="#d19050"/>
      <path id="XMLID_41_" d="M37.238,20.6H3.127S0,20.6,0,24.3v1.848H2.061V24.3c0-1.848,1.066-1.848,1.066-1.848H37.238s1.066,0,1.066,1.848v1.848h2.061V24.3c-.071-3.7-3.127-3.7-3.127-3.7Z" transform="translate(0.071 -5.96)" fill="#d19050"/>
      <path id="XMLID_40_" d="M12.9,7.7v7.32h1.848V7.7Z" transform="translate(-3.661 -2.228)" fill="#d19050"/>
      <path id="XMLID_39_" d="M27.1,7.7v7.32h1.777V7.7Z" transform="translate(-7.77 -2.228)" fill="#d19050"/>
      <path id="XMLID_38_" d="M41.3,7.7v7.32h1.777V7.7Z" transform="translate(-11.879 -2.228)" fill="#d19050"/>
      <path id="XMLID_37_" d="M13.826,2.772c.924,0,1.492-.995,0-2.772-1.492,1.777-.924,2.772,0,2.772Z" transform="translate(-3.664)" fill="#d19050"/>
      <path id="XMLID_36_" d="M27.948,2.772c.924,0,1.492-.995,0-2.772-1.421,1.777-.853,2.772,0,2.772Z" transform="translate(-7.765)" fill="#d19050"/>
      <path id="XMLID_35_" d="M42.135,2.772c.924,0,1.492-.995,0-2.772-1.492,1.777-.853,2.772,0,2.772Z" transform="translate(-11.862)" fill="#d19050"/>
    </g>
  </g>
</svg>
