<svg id="noun_Bus_3344166" xmlns="http://www.w3.org/2000/svg" width="auto" height="20" viewBox="0 0 36.379 38.375">
  <path id="Path_209" data-name="Path 209" d="M37.612,8.3a1.877,1.877,0,0,0-.211.019V6.1A6.1,6.1,0,0,0,31.3,0H10.486a6.1,6.1,0,0,0-6.1,6.1V8.374A1.358,1.358,0,0,0,2.6,9.674V14.28a1.37,1.37,0,0,0,1.788,1.3V31.806a2.157,2.157,0,0,0,2.157,2.153H7.12V35.85a2.533,2.533,0,0,0,2.54,2.525h3.154a2.533,2.533,0,0,0,2.521-2.525V33.959H26.929V35.85a2.533,2.533,0,0,0,2.533,2.525H32.3a2.533,2.533,0,0,0,2.525-2.525V33.959h.418A2.157,2.157,0,0,0,37.4,31.806V15.65a1.27,1.27,0,0,0,.211,0,1.37,1.37,0,0,0,1.366-1.366V9.678A1.374,1.374,0,0,0,37.612,8.3ZM16.184,2.575h9.248a.948.948,0,1,1,0,1.892H16.184a.948.948,0,1,1,0-1.892ZM11.223,30.386a2.157,2.157,0,1,1,2.153-2.157,2.157,2.157,0,0,1-2.153,2.157Zm20.131,0a2.157,2.157,0,1,1,2.157-2.157,2.157,2.157,0,0,1-2.157,2.157Zm3.208-7.464H7.228V6.363H34.562Z" transform="translate(-2.6)" fill="#d19050"/>
</svg>
