<svg id="PXFEyw.tif_1_" xmlns="http://www.w3.org/2000/svg" width="auto" height="25" viewBox="0 0 61.092 46.331">
  <g id="XMLID_35_">
    <path id="XMLID_55_" d="M381.031,49.451c-1.41-.282-2.537-.94-2.631-2.443a2.7,2.7,0,1,1,5.357,0C383.568,48.417,382.535,49.169,381.031,49.451Z" transform="translate(-356.127 -3.12)" fill="#660500"/>
    <path id="XMLID_54_" d="M417.1,43.355a2.616,2.616,0,0,1-3.007-2.161,2.653,2.653,0,1,1,3.007,2.161Z" transform="translate(-358.272 -2.757)" fill="#660500"/>
    <path id="XMLID_53_" d="M374.741,28c1.786.094,2.913,1.034,2.913,2.819a2.526,2.526,0,0,1-2.443,2.631,2.558,2.558,0,0,1-2.913-2.161C372.016,29.5,373.237,28.564,374.741,28Z" transform="translate(-355.757 -2.156)" fill="#660500"/>
    <path id="XMLID_52_" d="M384.3,15.212a2.6,2.6,0,0,1,2.255-2.913,2.492,2.492,0,0,1,2.913,2.725,2.368,2.368,0,0,1-2.537,2.537A2.638,2.638,0,0,1,384.3,15.212Z" transform="translate(-356.483 -1.209)" fill="#660500"/>
    <path id="XMLID_51_" d="M369.5,38c1.41.376,2.349,1.222,2.161,2.819a2.608,2.608,0,1,1-5.169-.564A2.736,2.736,0,0,1,369.5,38Z" transform="translate(-355.408 -2.758)" fill="#660500"/>
    <path id="XMLID_50_" d="M386.649,39.457c-1.5-.47-2.443-1.222-2.349-2.819a2.548,2.548,0,0,1,2.631-2.537,2.472,2.472,0,0,1,2.537,3.1A2.693,2.693,0,0,1,386.649,39.457Z" transform="translate(-356.482 -2.523)" fill="#660500"/>
    <path id="XMLID_49_" d="M412.543,28.1c1.5.188,2.631.94,2.725,2.443.094,1.786-.846,3.007-2.725,2.913a2.472,2.472,0,0,1-2.443-2.631A2.751,2.751,0,0,1,412.543,28.1Z" transform="translate(-358.036 -2.162)" fill="#660500"/>
    <path id="XMLID_48_" d="M359.043,16.4c1.5,0,2.537.658,2.725,2.161a2.284,2.284,0,0,1-2.161,2.725,2.413,2.413,0,0,1-3.007-2.443C356.506,17.434,357.539,16.588,359.043,16.4Z" transform="translate(-354.814 -1.458)" fill="#660500"/>
    <path id="XMLID_47_" d="M395.381,46.824a2.446,2.446,0,0,1-2.537,2.443,2.271,2.271,0,0,1-2.444-2.443,2.461,2.461,0,0,1,2.819-2.725A2.355,2.355,0,0,1,395.381,46.824Z" transform="translate(-356.85 -3.124)" fill="#660500"/>
    <path id="XMLID_46_" d="M407.191,42.421a4.121,4.121,0,0,1-2.349.846c-1.786,0-2.631-1.222-2.443-3.007a2.284,2.284,0,0,1,2.725-2.161C406.533,38.286,407.473,39.226,407.191,42.421Z" transform="translate(-357.571 -2.763)" fill="#660500"/>
    <path id="XMLID_45_" d="M357.143,43.369a2.526,2.526,0,0,1-2.443-2.631,2.493,2.493,0,1,1,4.981.094A2.526,2.526,0,0,1,357.143,43.369Z" transform="translate(-354.7 -2.77)" fill="#660500"/>
    <path id="XMLID_44_" d="M401.386,30.355c0,1.88-.846,2.819-2.349,2.913a2.3,2.3,0,0,1-2.537-2.443,2.379,2.379,0,0,1,2.349-2.725A2.55,2.55,0,0,1,401.386,30.355Z" transform="translate(-357.217 -2.162)" fill="#660500"/>
    <path id="XMLID_43_" d="M365.679,30.455a2.5,2.5,0,0,1-2.349,2.913c-1.6.188-2.537-.846-2.631-2.443a2.268,2.268,0,0,1,2.255-2.725A2.413,2.413,0,0,1,365.679,30.455Z" transform="translate(-355.06 -2.168)" fill="#660500"/>
    <path id="XMLID_42_" d="M398.942,16.4a2.245,2.245,0,0,1,2.443,2.349,2.444,2.444,0,1,1-4.887.094C396.311,17.34,397.344,16.682,398.942,16.4Z" transform="translate(-357.216 -1.458)" fill="#660500"/>
    <path id="XMLID_41_" d="M377.667,18.848a2.585,2.585,0,0,1-2.443,2.631A2.38,2.38,0,0,1,372.5,19.13a2.257,2.257,0,0,1,2.349-2.631C376.446,16.31,377.385,17.156,377.667,18.848Z" transform="translate(-355.771 -1.462)" fill="#660500"/>
    <path id="XMLID_40_" d="M369.043,6.5a2.3,2.3,0,0,1,2.631,2.349,2.373,2.373,0,0,1-2.349,2.725A2.425,2.425,0,0,1,366.6,9.225C366.506,7.534,367.445,6.782,369.043,6.5Z" transform="translate(-355.416 -0.861)" fill="#660500"/>
    <path id="XMLID_39_" d="M392.655,5.481A2.307,2.307,0,0,1,390.4,2.755c.094-1.6,1.222-2.255,2.725-2.255a2.2,2.2,0,0,1,2.161,2.725A2.193,2.193,0,0,1,392.655,5.481Z" transform="translate(-356.849 -0.5)" fill="#660500"/>
    <path id="XMLID_38_" d="M381.219,5.486c-1.692,0-2.725-.846-2.819-2.349A2.3,2.3,0,0,1,380.843.6a2.425,2.425,0,0,1,2.725,2.349A2.271,2.271,0,0,1,381.219,5.486Z" transform="translate(-356.127 -0.506)" fill="#660500"/>
    <path id="XMLID_37_" d="M414.749,21.381a2.346,2.346,0,0,1-2.349-2.631,2.228,2.228,0,0,1,2.537-2.349,2.151,2.151,0,0,1,2.349,2.537A2.446,2.446,0,0,1,414.749,21.381Z" transform="translate(-358.175 -1.458)" fill="#660500"/>
    <path id="XMLID_36_" d="M407.385,8.761a2.463,2.463,0,0,1-2.255,2.725c-1.6.188-2.443-.752-2.631-2.255A2.153,2.153,0,0,1,404.754,6.6,2.2,2.2,0,0,1,407.385,8.761Z" transform="translate(-357.577 -0.867)" fill="#660500"/>
  </g>
</svg>
