<svg xmlns="http://www.w3.org/2000/svg" width="auto" height="20" viewBox="0 0 29.566 38.937">
  <path id="Path_159" data-name="Path 159" d="M14.585,0a3.974,3.974,0,1,1-3.974,3.974A3.974,3.974,0,0,1,14.585,0ZM23.5,33.714A13.056,13.056,0,1,1,9.979,13.194v3.088A10.083,10.083,0,1,0,21.774,30.956l1.73,2.758ZM11.719,11.888V21.5c0,2.348.9,3.314,2.776,3.314h5.468l.745,1.414h6.317l-2.343-5.086s-.3-1.343-2.465-1.343H18.229l-1.353-7.745c-.585-3.3-5.157-3.253-5.157-.165Zm9.819,15.669L22.693,29.4h5.784l-.849-1.838Zm1.994,3.168,1.815,2.659a2.261,2.261,0,0,0,4.007-2.093l-.259-.566Z" fill="#d19050"/>
</svg>
