<svg id="Group_1119" data-name="Group 1119" xmlns="http://www.w3.org/2000/svg" width="auto" height="80" viewBox="0 0 127.07 170.649">
  <g id="Group_1117" data-name="Group 1117">
    <path id="Path_375" data-name="Path 375" d="M56.286,120H4.605a4.605,4.605,0,0,0,0,9.21H56.286a4.605,4.605,0,1,0,0-9.21Z" transform="translate(0 -17.662)" fill="#801c17"/>
    <path id="Path_376" data-name="Path 376" d="M133.786,120H82.105a4.605,4.605,0,0,0,0,9.21h51.766a4.586,4.586,0,0,0,4.605-4.605A4.715,4.715,0,0,0,133.786,120Z" transform="translate(-11.406 -17.662)" fill="#801c17"/>
    <path id="Path_377" data-name="Path 377" d="M4.485,28.872c2.729,8.272,5.373,16.545,8.1,24.732,1.279,3.838,2.217,8.1,6.908,8.784,4.435.682,8.784,1.365,13.219,2.132l2.985.426v35.477h51.6V74.584c1.45.256,2.985.426,4.008.682.426.085,4.691.682,4.776,1.109.6,3.838,1.109,7.761,1.706,11.684s1.194,7.846,1.706,11.769h14.072c-.085-.426-.171-1.109-.171-1.194-.512-3.5-1.023-6.908-1.535-10.4-.938-6.226-1.876-12.451-2.729-18.677-.853-5.629-6.481-5.97-10.916-6.823-5.032-.938-10.063-1.961-15.095-2.9-7.5-1.45-15.18-2.985-22.856-4.435-6.823-1.279-13.816-2.473-20.724-3.582-4.349-.682-8.613-1.45-12.963-2.132-.853-.171-.768-.085-1.023-.938-.6-1.791-1.194-3.667-1.791-5.458-1.961-6.055-3.923-12.11-5.97-18.25a1.056,1.056,0,0,0-.171-.256A6.887,6.887,0,0,0,4.4,27.508a9.4,9.4,0,0,0,.171,1.535Z" transform="translate(-0.648 -3.032)" fill="#801c17"/>
    <path id="Path_378" data-name="Path 378" d="M57.4,18.073V44.681a22.556,22.556,0,0,0,14.583,5.373,22.255,22.255,0,0,0,14.5-5.287V17.987a22.5,22.5,0,0,0-29.081.085Z" transform="translate(-8.448 -1.869)" fill="#801c17"/>
    <path id="Path_379" data-name="Path 379" d="M51.39,39.571V20.638h.085c0-8.613,8.1-15.692,18.165-15.692,9.722,0,17.653,6.652,18.08,14.924v19.7a10.518,10.518,0,0,0,4.946-19.785C92.24,8.784,82.006,0,69.64,0,57.189,0,47.04,8.784,46.529,19.785a10.6,10.6,0,0,0-5.629,9.3A10.482,10.482,0,0,0,51.39,39.571Z" transform="translate(-6.02)" fill="#801c17"/>
  </g>
  <g id="Group_1118" data-name="Group 1118" transform="translate(0 118.883)">
    <path id="Path_380" data-name="Path 380" d="M43.4,191.166H93.29V139.4H43.4Zm19.785-46.393H88.258V148.1H63.185Zm-6.055,0h3.411V148.1H57.13Zm-5.373,0h3.411V148.1H51.758Zm-5.458,0h3.411V148.1H46.3Z" transform="translate(-6.388 -139.4)" fill="#801c17"/>
    <path id="Path_381" data-name="Path 381" d="M108.1,139.4v51.766h31.725V139.4Zm15.862,47.843a8.784,8.784,0,1,1,8.784-8.784A8.772,8.772,0,0,1,123.962,187.243Zm0-21.832a11,11,0,1,1,11-11A11.028,11.028,0,0,1,123.962,165.411Z" transform="translate(-15.91 -139.4)" fill="#d19050"/>
    <circle id="Ellipse_37" data-name="Ellipse 37" cx="4.008" cy="4.008" r="4.008" transform="translate(104.044 35.051)" fill="#d19050"/>
    <circle id="Ellipse_38" data-name="Ellipse 38" cx="6.226" cy="6.226" r="6.226" transform="translate(101.827 8.699)" fill="#d19050"/>
    <path id="Path_382" data-name="Path 382" d="M0,139.4v51.766H31.725V139.4Zm15.862,47.843a8.784,8.784,0,1,1,8.784-8.784A8.772,8.772,0,0,1,15.862,187.243Zm0-21.832a11,11,0,1,1,11-11A11.028,11.028,0,0,1,15.862,165.411Z" transform="translate(0 -139.4)" fill="#d19050"/>
    <circle id="Ellipse_39" data-name="Ellipse 39" cx="4.008" cy="4.008" r="4.008" transform="translate(11.854 35.051)" fill="#d19050"/>
    <circle id="Ellipse_40" data-name="Ellipse 40" cx="6.226" cy="6.226" r="6.226" transform="translate(9.637 8.699)" fill="#d19050"/>
  </g>
</svg>
