
<svg id="Group_1681" data-name="Group 1681" xmlns="http://www.w3.org/2000/svg" width="26.594" height="15.711" viewBox="0 0 26.594 15.711">
  <path id="Path_524" data-name="Path 524" d="M31.024,29.513c.008.1.024.2.04.3a1.359,1.359,0,0,0,.032.141,3.575,3.575,0,0,0,.439,1.072,3.859,3.859,0,0,0,.234.339c.085.1.177.21.27.306.008.008.016.012.02.02a2.938,2.938,0,0,0,.234.214,2.787,2.787,0,0,0,.278.209c.06.04.121.081.181.117a1.078,1.078,0,0,0,.133.072.7.7,0,0,0,.093.052.347.347,0,0,0,.068.032,1.14,1.14,0,0,0,.125.056s.008,0,.012.008.008,0,.012,0a.82.82,0,0,0,.165.064l.06.024h.008c.04.016.089.028.129.04a3.271,3.271,0,0,0,1.068.169,2.263,2.263,0,0,0,.238-.02H34.9l.129-.012c.008,0,.012,0,.02,0s.032,0,.048,0a.052.052,0,0,0,.024,0,.8.8,0,0,0,.165-.028.964.964,0,0,0,.149-.028c.044-.012.089-.02.133-.032s.085-.02.129-.036.089-.024.133-.04a.483.483,0,0,1,.056-.02A.653.653,0,0,0,36,32.479c.02-.008.04-.016.056-.024a.565.565,0,0,0,.073-.032c.024-.012.048-.02.073-.032s.044-.02.065-.032c.064-.032.129-.068.189-.1l.044-.024c.06-.032.121-.072.181-.113.089-.064.177-.129.262-.2s.165-.145.246-.222l.024-.024c.044-.044.089-.089.129-.137.068-.077.133-.161.2-.246s.117-.169.173-.258v0a2.147,2.147,0,0,0,.121-.21,3.576,3.576,0,0,0,.419-1.688,3.626,3.626,0,0,0-7.253,0c0,.072,0,.149.008.222C31.012,29.4,31.016,29.461,31.024,29.513Z" transform="translate(-21.329 -23.485)" fill="#d19050"/>
  <path id="Path_525" data-name="Path 525" d="M16.529,38.264c.053-.04.1-.077.157-.113a4.777,4.777,0,0,0-.556-.713l0,0a4.57,4.57,0,0,0-.608-.54,4.191,4.191,0,0,1-.609.552,1.524,1.524,0,0,1-.161.121,4.431,4.431,0,0,1-5.021,0,1.519,1.519,0,0,1-.161-.121,3.98,3.98,0,0,1-.612-.552A4.944,4.944,0,0,0,7,40.835V42.12a1.377,1.377,0,0,0,.729,1.221v.044l.3.077a17.18,17.18,0,0,0,4.207.52,17.715,17.715,0,0,0,2.015-.117V42.85a5.738,5.738,0,0,1,1.805-4.182A4.979,4.979,0,0,1,16.529,38.264Z" transform="translate(-7 -30.286)" fill="#d19050"/>
  <path id="Path_526" data-name="Path 526" d="M12.571,27.116c.056.04.117.077.177.113h0a0,0,0,0,1,0,0c.06.036.125.073.189.1a.233.233,0,0,0,.032.016c.052.028.1.052.161.077a.812.812,0,0,0,.1.044c.032.012.064.028.1.04l.076.028c.044.016.089.028.133.04s.1.032.149.044l.117.024a1.54,1.54,0,0,0,.23.044.413.413,0,0,0,.068.012,3.506,3.506,0,0,0,.508.044,3.287,3.287,0,0,0,.911-.121l.161-.048c.044-.012.089-.024.133-.04l.076-.028c.036-.012.069-.028.1-.04a.814.814,0,0,0,.1-.044c.056-.024.109-.048.161-.077a.232.232,0,0,0,.032-.016c.048-.024.1-.052.141-.077a.575.575,0,0,0,.052-.032c.06-.032.121-.072.181-.113a3.642,3.642,0,0,0,.508-.423.115.115,0,0,0,.024-.02c.024-.024.044-.048.065-.073s.044-.044.065-.069a1.994,1.994,0,0,0,.141-.169,2.41,2.41,0,0,0,.185-.266c.061-.093.113-.185.165-.282a3.576,3.576,0,0,0,.419-1.688,3.626,3.626,0,1,0-6.213,2.543A3.554,3.554,0,0,0,12.571,27.116Z" transform="translate(-9.388 -20.5)" fill="#d19050"/>
  <path id="Path_527" data-name="Path 527" d="M56.692,36.89a4.445,4.445,0,0,1-.608.556c-.053.04-.109.081-.165.121a4.431,4.431,0,0,1-5.021,0c-.052-.036-.1-.073-.157-.117a3.982,3.982,0,0,1-.612-.552,4.564,4.564,0,0,0-.608.54l0,0a4.777,4.777,0,0,0-.556.713v0a1.763,1.763,0,0,1,.153.109,5.548,5.548,0,0,1,.476.4l.008.008a5.737,5.737,0,0,1,1.8,4.174v1.015a17.7,17.7,0,0,0,2.015.117,17.182,17.182,0,0,0,4.207-.52l.3-.081v-.04a1.377,1.377,0,0,0,.729-1.221V40.835A4.945,4.945,0,0,0,56.692,36.89Z" transform="translate(-32.053 -30.286)" fill="#d19050"/>
  <path id="Path_528" data-name="Path 528" d="M37.452,45.306a1.427,1.427,0,0,0-.024-.189c0-.04-.012-.077-.016-.117a1.785,1.785,0,0,0-.036-.205,1.2,1.2,0,0,0-.028-.117,3.332,3.332,0,0,0-.089-.346c-.02-.065-.04-.129-.065-.193s-.044-.125-.068-.185c-.048-.125-.1-.246-.161-.367-.036-.072-.073-.145-.113-.214s-.068-.117-.1-.177c-.052-.085-.109-.169-.165-.25a2.293,2.293,0,0,0-.145-.2,4.778,4.778,0,0,0-.326-.379c-.06-.06-.121-.121-.181-.177a4.381,4.381,0,0,0-.391-.334c-.008-.008-.016-.016-.02-.016a1.539,1.539,0,0,1-.113.117v0a4.226,4.226,0,0,1-.5.431c-.052.044-.1.081-.157.117a4.422,4.422,0,0,1-5.021,0c-.052-.036-.1-.073-.153-.113a4.717,4.717,0,0,1-.5-.435v0l-.06-.157c-.016.012-.036.024-.053.036a.04.04,0,0,1-.02.016,4.928,4.928,0,0,0-.387.33v0c-.06.056-.121.117-.181.177h0v0q-.109.115-.206.23c-.1.113-.185.23-.27.347-.052.077-.1.157-.153.238-.04.065-.081.133-.117.2s-.068.125-.1.189c-.04.081-.077.161-.113.246s-.064.153-.092.234a3.872,3.872,0,0,0-.161.52c-.024.089-.044.181-.06.27s-.032.181-.044.274a1.428,1.428,0,0,0-.024.189.76.76,0,0,0-.008.1c-.012.125-.016.25-.016.379v1.285a1.339,1.339,0,0,0,.012.181.873.873,0,0,0,.028.141.529.529,0,0,0,.032.113.421.421,0,0,0,.024.077.793.793,0,0,0,.048.1.044.044,0,0,0,.012.028,1.091,1.091,0,0,0,.068.117.1.1,0,0,0,.012.02,1.279,1.279,0,0,0,.089.117,1.536,1.536,0,0,0,.113.117,1.093,1.093,0,0,0,.153.125.973.973,0,0,0,.137.085v.044l.306.077a17.249,17.249,0,0,0,8.405,0l.306-.081v-.04a.971.971,0,0,0,.137-.085,1.088,1.088,0,0,0,.153-.125,1.544,1.544,0,0,0,.113-.117,1.294,1.294,0,0,0,.089-.117.1.1,0,0,0,.012-.02,1.09,1.09,0,0,0,.068-.117.044.044,0,0,0,.012-.028.793.793,0,0,0,.048-.1A.417.417,0,0,0,37.4,47.5a.529.529,0,0,0,.032-.113.869.869,0,0,0,.028-.141,1.338,1.338,0,0,0,.012-.181V45.781c0-.125,0-.254-.016-.379A.76.76,0,0,0,37.452,45.306Z" transform="translate(-18.941 -33.217)" fill="#d19050"/>
  <path id="Path_529" data-name="Path 529" d="M52.571,27.116c.056.04.117.077.177.113h0a0,0,0,0,1,0,0c.06.036.125.073.189.1a.233.233,0,0,0,.032.016c.052.028.1.052.161.077a.812.812,0,0,0,.1.044c.032.012.064.028.1.04l.076.028c.044.016.089.028.133.04s.1.032.149.044l.117.024a1.54,1.54,0,0,0,.23.044.413.413,0,0,0,.068.012,3.506,3.506,0,0,0,.508.044,3.287,3.287,0,0,0,.911-.121l.161-.048c.044-.012.089-.024.133-.04l.076-.028c.036-.012.069-.028.1-.04a.814.814,0,0,0,.1-.044c.056-.024.109-.048.161-.077a.233.233,0,0,0,.032-.016c.048-.024.1-.052.141-.077a.575.575,0,0,0,.052-.032c.06-.032.121-.072.181-.113a3.642,3.642,0,0,0,.508-.423l.024-.024c.044-.044.089-.089.129-.137a1.994,1.994,0,0,0,.141-.169,2.411,2.411,0,0,0,.185-.266c.061-.093.113-.185.165-.282a3.577,3.577,0,0,0,.419-1.688,3.626,3.626,0,1,0-6.213,2.547A3.786,3.786,0,0,0,52.571,27.116Z" transform="translate(-33.271 -20.5)" fill="#d19050"/>
</svg>
