<svg xmlns="http://www.w3.org/2000/svg" width="auto" height="15" viewBox="0 0 33.128 25.411">
  <path id="Path_154" data-name="Path 154" d="M13.677,4.436h2.735v7.477a5.182,5.182,0,0,1-2.128.486,4.607,4.607,0,0,1-2.31-.669A6.311,6.311,0,0,0,10.941,11a6.1,6.1,0,0,0,1.884-4.62C12.826,2.552,10.394,0,6.747,0A6.268,6.268,0,0,0,1.277,3.038l-.122.3L4.133,6.624l.3-.547a2.447,2.447,0,0,1,2.249-1.52c1.155,0,1.884.851,1.884,2.249,0,1.033-.3,2.675-2.431,2.675H4.681v4.5H6.808c1.763,0,2.675.79,2.675,2.371A2.429,2.429,0,0,1,6.99,19.025,4.241,4.241,0,0,1,3.4,16.593l-.3-.547L0,19.632l.182.3A8.086,8.086,0,0,0,6.99,23.644c4.012,0,6.808-2.918,6.869-7.173a4.086,4.086,0,0,0,2.553.061v8.814h4.5V4.436h4.255V25.407h4.5V4.436h3.465V.181H13.677V4.436Z" transform="translate(0 0.004)" fill="#d19050"/>
</svg>
