<svg id="Group_6" data-name="Group 6" xmlns="http://www.w3.org/2000/svg" width="auto" height="25" viewBox="0 0 48.011 40.969">
  <ellipse id="XMLID_36_" cx="3.795" cy="3.795" rx="3.795" ry="3.795" transform="translate(6.871 4.286)" fill="#d19050"/>
  <ellipse id="XMLID_35_" cx="3.795" cy="3.795" rx="3.795" ry="3.795" transform="translate(33.494 4.286)" fill="#d19050"/>
  <path id="XMLID_34_" d="M168.4,8.99a1.527,1.527,0,0,0-1.747,1.385c-.06.241-.783,6.023-5,6.023h-4.879a5.28,5.28,0,0,0-3.554,1.747,6.818,6.818,0,0,1-.783.6,13.218,13.218,0,0,1-1.988-.361l.241-.9a1.215,1.215,0,0,0-.12-1.024l-.181-.3a.554.554,0,0,1-.06-.6l.3-1.084a.13.13,0,0,0,.12-.12l.181-.482a.221.221,0,0,0-.06-.181c.06-.12-.06-.181-.181-.241l-.843-.241c-.12-.06-.181.06-.241.181a.13.13,0,0,0-.12.12l-.181.482a.221.221,0,0,0,.06.181l-.3,1.084a.937.937,0,0,1-.361.482l-.3.181a1.542,1.542,0,0,0-.6.783l-1.325,4.879a.6.6,0,0,0,.482.783l1.687.482a.6.6,0,0,0,.783-.482l.241-.964a12.359,12.359,0,0,0,2.65.482h.181a4.532,4.532,0,0,0,2.771-1.385,3.632,3.632,0,0,0,.482-.482v5.722l-2.831,5.9a1.5,1.5,0,0,0,.12,1.506,1.734,1.734,0,0,0,1.385.783h.181a13.481,13.481,0,0,0-.181,3.494l.422,5.421a1.789,1.789,0,0,0,1.807,1.687h.181a1.834,1.834,0,0,0,1.687-1.988l-.422-5.421a9.393,9.393,0,0,1,.181-2.59l.181-.663h1.446l1.144,8.975a1.872,1.872,0,0,0,1.807,1.626h.241a1.859,1.859,0,0,0,1.566-2.048l-1.084-8.553h.663a1.653,1.653,0,0,0,1.506-2.289l-2.831-5.9V19.531c4.819-.663,6.746-5.9,7.108-8.734A1.932,1.932,0,0,0,168.4,8.99Z" transform="translate(-122.02 -3.56)" fill="#d19050"/>
  <path id="XMLID_33_" d="M127.883,16.648a1.33,1.33,0,0,0-.6-.783l-.3-.181a.748.748,0,0,1-.361-.482l-.3-1.144a.115.115,0,0,0,.06-.181L126.2,13.4c0-.06-.06-.12-.181-.12a.323.323,0,0,0-.241-.181l-.843.241a.323.323,0,0,0-.181.241v.181l.181.482a.13.13,0,0,0,.121.12l.3,1.084a.713.713,0,0,1-.06.6l-.181.181a1.484,1.484,0,0,0-.12,1.024l.241.843a8.4,8.4,0,0,1-1.988.361c-.181-.12-.482-.422-.783-.6a5.162,5.162,0,0,0-3.554-1.747h-4.879c-4.156,0-5-5.782-5-6.023A1.69,1.69,0,0,0,107.283,8.7a1.649,1.649,0,0,0-1.385,1.747c.3,2.891,2.229,8.132,7.168,8.734v9.1l-1.024,14.035a1.915,1.915,0,0,0,1.687,1.988h.181a1.834,1.834,0,0,0,1.807-1.687l.964-12.95,1.506,4.7a9.922,9.922,0,0,1,.361,1.927l.482,6.445a1.831,1.831,0,0,0,1.807,1.687h.181a1.87,1.87,0,0,0,1.687-1.988l-.482-6.325a10.315,10.315,0,0,0-.542-2.711l-1.626-5.06V20.081a2.618,2.618,0,0,1,.422.361,4.24,4.24,0,0,0,2.771,1.385h.181a17.334,17.334,0,0,0,2.711-.482l.241.964a.7.7,0,0,0,.783.482l1.687-.482a.7.7,0,0,0,.482-.783Z" transform="translate(-105.893 -3.448)" fill="#d19050"/>
  <path id="XMLID_32_" d="M145.282,34.7a.475.475,0,0,0-.482.482v1.506a.475.475,0,0,0,.482.482.443.443,0,0,0,.482-.482V35.242A.492.492,0,0,0,145.282,34.7Z" transform="translate(-121.365 -13.789)" fill="#d19050"/>
  <path id="XMLID_31_" d="M148.433,33.711a.511.511,0,0,0-.723.723l1.024,1.024a.452.452,0,0,0,.723,0,.548.548,0,0,0,0-.723Z" transform="translate(-122.468 -13.342)" fill="#d19050"/>
  <path id="XMLID_30_" d="M141.535,33.7l-1.024,1.024a.548.548,0,0,0,0,.723.452.452,0,0,0,.723,0l1.024-1.024a.548.548,0,0,0,0-.723A.491.491,0,0,0,141.535,33.7Z" transform="translate(-119.605 -13.327)" fill="#d19050"/>
  <path id="XMLID_29_" d="M136.551,6.74a1.271,1.271,0,0,0,1.084-1.084V2.042l3.433-.482V4.15a1.422,1.422,0,0,0-.723-.06c-.723.181-1.144.723-1.024,1.265a1.225,1.225,0,0,0,1.446.783,1.271,1.271,0,0,0,1.084-1.084V.476a.461.461,0,0,0-.542-.482l-3.795.542c-.241.06-.482.241-.482.482V4.632a1.422,1.422,0,0,0-.723-.06c-.723.181-1.144.723-1.024,1.265C135.226,6.559,135.889,6.861,136.551,6.74Z" transform="translate(-117.573 0.015)" fill="#d19050"/>
  <path id="XMLID_28_" d="M150.182,8.463a1.153,1.153,0,0,0,1.024-1.084h0V3.7c1.024,0,.9,1.024.663,1.687-.06.12,0,.181.12.181l.181.06a.115.115,0,0,0,.181-.06c1.024-1.2.241-2.891-1.506-3.072a.285.285,0,0,0-.3.3V6.415a1.422,1.422,0,0,0-.723-.06A1.261,1.261,0,0,0,148.8,7.62,1.114,1.114,0,0,0,150.182,8.463Z" transform="translate(-122.952 -0.985)" fill="#d19050"/>
</svg>
