<svg xmlns="http://www.w3.org/2000/svg" width="auto" height="15" viewBox="0 0 37.006 32.751">
  <g id="Group_612" data-name="Group 612" transform="translate(0.013 0.049)">
    <path id="Path_163" data-name="Path 163" d="M27.111,10.358a3.56,3.56,0,0,0,.623-.039h0c2.257-.428,3.657-3.074,3.113-5.914s-2.8-4.825-5.058-4.4a3.659,3.659,0,0,0-2.646,2.1,5.984,5.984,0,0,0-.506,3.813C23.142,8.491,25.049,10.358,27.111,10.358Z" transform="translate(-13.774 0)" fill="#d19050"/>
    <path id="Path_164" data-name="Path 164" d="M7.968,21.432a5.888,5.888,0,0,0-2.257-3,3.747,3.747,0,0,0-3.229-.506c-2.1.739-3.074,3.5-2.14,6.147a5.888,5.888,0,0,0,2.257,3,3.883,3.883,0,0,0,2.14.7,3.574,3.574,0,0,0,1.089-.195C7.89,26.841,8.863,24.078,7.968,21.432Z" transform="translate(0 -10.88)" fill="#d19050"/>
    <path id="Path_165" data-name="Path 165" d="M54.089,10.319h0a3.145,3.145,0,0,0,.623.039c2.023,0,3.969-1.868,4.436-4.436a5.737,5.737,0,0,0-.506-3.813A3.852,3.852,0,0,0,56,.009c-2.257-.428-4.513,1.556-5.058,4.4C50.432,7.246,51.833,9.891,54.089,10.319Z" transform="translate(-31.064 0)" fill="#d19050"/>
    <path id="Path_166" data-name="Path 166" d="M79.516,18.037c-2.1-.7-4.552.856-5.447,3.5s.039,5.369,2.179,6.109a3.375,3.375,0,0,0,1.089.195,3.883,3.883,0,0,0,2.14-.7,5.938,5.938,0,0,0,2.257-3C82.59,21.5,81.617,18.737,79.516,18.037Z" transform="translate(-45.052 -10.947)" fill="#d19050"/>
    <path id="Path_167" data-name="Path 167" d="M31.837,33.068a8.485,8.485,0,0,0-10.622,0c-3.735,3-8.015,7.354-8.015,11.4,0,9.766,26.652,9.766,26.652,0C39.891,40.421,35.572,36.064,31.837,33.068Z" transform="translate(-8.072 -19.091)" fill="#d19050"/>
  </g>
</svg>
