<svg id="Group_1047" data-name="Group 1047" xmlns="http://www.w3.org/2000/svg" width="auto" height="80" viewBox="0 0 121.579 121.427">
  <circle id="Ellipse_28" data-name="Ellipse 28" cx="18.973" cy="18.973" r="18.973" transform="translate(0.911)" fill="#801c17"/>
  <path id="Path_341" data-name="Path 341" d="M98.867,52.675h-2.58V49.336a1.306,1.306,0,0,0-1.214-1.214H89.76a1.306,1.306,0,0,0-1.214,1.214v3.339H81.108L80.2,50.7c-1.973-4.4-1.973-4.4-4.4-4.4H55.912c-2.429,0-2.429,0-4.4,4.4L50.6,52.675H38.761A5.118,5.118,0,0,0,33.6,57.836V92.291a5.118,5.118,0,0,0,5.161,5.161H99.019a5.118,5.118,0,0,0,5.161-5.161V57.836A5.348,5.348,0,0,0,98.867,52.675ZM68.814,86.523A11.991,11.991,0,1,1,80.8,74.532,11.92,11.92,0,0,1,68.814,86.523Z" transform="translate(17.399 23.976)" fill="#d19050"/>
  <path id="Path_342" data-name="Path 342" d="M43.107,31.6H0v73.312H39.16V57.4c0-4.554,3.036-8.045,6.679-8.045H56.615v-4.4A13.507,13.507,0,0,0,43.107,31.6Z" transform="translate(0 16.364)" fill="#801c17"/>
  <path id="Path_343" data-name="Path 343" d="M73.784,22.943c0-1.973-2.277-3.643-5.161-3.643H50.561c-2.884,0-5.161,1.67-5.161,3.643v25.8c0,1.973,2.277,3.643,5.161,3.643H68.623c2.884,0,5.161-1.67,5.161-3.643Z" transform="translate(23.51 9.994)" fill="#801c17"/>
</svg>
