<svg id="noun_Train_179467" xmlns="http://www.w3.org/2000/svg" width="auto" height="20" viewBox="0 0 47.288 38.147">
  <g id="Group_618" data-name="Group 618" transform="translate(0 0)">
    <g id="Group_617" data-name="Group 617">
      <path id="Path_211" data-name="Path 211" d="M10.544,14.593a.753.753,0,0,1,.683-.893h15.29a.763.763,0,0,1,.736.788.665.665,0,0,1-.736.631H23.259L19.9,18.482h6.673a3.365,3.365,0,0,1,2.364.841,3.682,3.682,0,0,1,1,1.366,48.975,48.975,0,0,0,5.412,8.67,24.72,24.72,0,0,0,2.575,2.68,12.517,12.517,0,0,0,2.575,1.786c.946.473,1.944.893,2.89,1.366a73.861,73.861,0,0,0,7.408,2.785,4.625,4.625,0,0,1,1.419.525,1.142,1.142,0,0,1,.578.893v4.939a1.431,1.431,0,0,1-.473,1.1,1.157,1.157,0,0,1-.841.263H10.281a7.6,7.6,0,0,1-2.995-1.787A6.1,6.1,0,0,1,5.553,40.5c-.053-.578-.053-1.1-.053-1.681v-8.2a26.079,26.079,0,0,1,.473-5.359,13.16,13.16,0,0,1,1.471-3.836A6.346,6.346,0,0,1,10.176,18.9a5.748,5.748,0,0,1,2.469-.473h4.781l-3.31-3.31h-2.89A.68.68,0,0,1,10.544,14.593Zm5.622.525,2.522,2.522,2.522-2.522Zm-4.624,5.622A2.033,2.033,0,0,0,9.6,22.212c-.473,1.419-.946,2.89-1.419,4.309a1.053,1.053,0,0,0,.21,1.1,1.447,1.447,0,0,0,1.051.263H24.835a1.524,1.524,0,0,0,.946-.263,1.208,1.208,0,0,0,.42-1.156c-.158-1.419-.368-2.89-.578-4.309a1.621,1.621,0,0,0-1.734-1.419C19.791,20.741,15.693,20.793,11.542,20.741Zm21.069,7.671v1.944c.053,2.312.105,4.624.158,6.988a13.046,13.046,0,0,0,2.89,1.892c0-.631-.053-1.314-.053-1.944-.053-.683,0-1.419-.053-2.1,0-.578,0-1.1-.053-1.681,0-.525,0-1.1-.053-1.629C34.5,30.777,33.5,29.621,32.612,28.412ZM36.552,36.5c.053.631,0,1.314.053,1.944v1.1c0,.105.105.105.158.105a23.525,23.525,0,0,0,2.732.841c-.053-.578,0-1.1-.053-1.681-.053-.631,0-1.261-.053-1.944,0-.631,0-1.314-.053-1.944a16.825,16.825,0,0,1-2.89-2.207C36.552,34.035,36.552,35.3,36.552,36.5ZM9.914,34.455a2.181,2.181,0,0,0-1.681,1.839A2.236,2.236,0,0,0,9.388,38.5a2.285,2.285,0,0,0,1.944.053,2.38,2.38,0,0,0,1.208-1.366,2.267,2.267,0,0,0-.736-2.364A2.452,2.452,0,0,0,9.914,34.455Zm14.291,0a2.131,2.131,0,0,0-1.576,1.471,2.181,2.181,0,0,0,.263,1.892,2.244,2.244,0,0,0,2.522.841,2.2,2.2,0,0,0,1.366-1.366,2.229,2.229,0,0,0-.736-2.417A2.131,2.131,0,0,0,24.2,34.455Zm16.288,6.358c.946.21,1.892.42,2.89.578V40.6c-.053-.631,0-1.261-.053-1.892,0-.578,0-1.156-.053-1.786-1-.42-1.944-.893-2.89-1.366C40.44,37.292,40.44,39.079,40.493,40.813Zm3.73-3.468c0,1.419.053,2.837.053,4.2.788.158,1.576.263,2.417.368,0-1.209-.053-2.47-.053-3.678C45.8,37.975,45.012,37.66,44.223,37.345Zm3.363,1.261c0,1.051.053,2.049.053,3.1a.894.894,0,0,0,.053.368c.63.105,1.261.158,1.892.21,0-1-.053-2.049-.053-3.048C48.9,39.026,48.269,38.816,47.586,38.606Zm2.89.946v.841c0,.683,0,1.314.053,2,.315.053.63.053.946.105v-.736c-.053-.631,0-1.261-.053-1.892Z" transform="translate(-5.5 -13.7)" fill="#d19050"/>
    </g>
    <path id="Path_212" data-name="Path 212" d="M9.715,77.3h5.727v1.419h8.091V77.3H53.115v1.786c0,.105-.105.105-.21.105-8.512.946-17.076,1.944-25.588,2.837H6.3V78.666H9.663A11.428,11.428,0,0,0,9.715,77.3Z" transform="translate(-5.88 -43.882)" fill="#d19050"/>
  </g>
</svg>
