<svg id="noun_review_3673110" xmlns="http://www.w3.org/2000/svg" width="auto" height="25" viewBox="0 0 47.21 47.211">
  <path id="Path_293" data-name="Path 293" d="M52.786,34h-11.8a.986.986,0,0,0-.984.984v17.7a.986.986,0,0,0,.984.984h11.8a.986.986,0,0,0,.984-.984v-17.7A.986.986,0,0,0,52.786,34Z" transform="translate(-6.559 -6.46)" fill="#d19050"/>
  <path id="Path_294" data-name="Path 294" d="M6.984,53.671h11.8a.986.986,0,0,0,.984-.984v-17.7A.986.986,0,0,0,18.786,34H6.984A.986.986,0,0,0,6,34.984v17.7A.986.986,0,0,0,6.984,53.671Z" transform="translate(-6 -6.46)" fill="#d19050"/>
  <path id="Path_295" data-name="Path 295" d="M36.77,27.984A.986.986,0,0,0,35.786,27h-11.8a.986.986,0,0,0-.984.984V52.573a.986.986,0,0,0,.984.984h11.8a.986.986,0,0,0,.984-.984Z" transform="translate(-6.28 -6.345)" fill="#d19050"/>
  <path id="Path_296" data-name="Path 296" d="M38.645,12.57a.985.985,0,0,0-.925-.659l-5.193-.01L30.806,6.679a.985.985,0,0,0-1.869-.01L27.177,11.9H21.984a.984.984,0,0,0-.934.669,1,1,0,0,0,.334,1.1l4.21,3.2-1.6,5.577a.983.983,0,0,0,1.554,1.043l4.308-3.442,4.308,3.442a.945.945,0,0,0,.61.216.981.981,0,0,0,.954-1.239l-1.475-5.488,4.092-3.315A.983.983,0,0,0,38.645,12.57Z" transform="translate(-6.247 -6)" fill="#d19050"/>
</svg>
