<svg xmlns="http://www.w3.org/2000/svg" width="auto" height="15" viewBox="0 0 30.111 22.564">
  <g id="Group_605" data-name="Group 605" transform="translate(0.041)">
    <path id="Path_153" data-name="Path 153" d="M30.07,0c0,.066-.006.132-.006.192v21.77H26.956V15.339h-.168q-1.9,0-3.8-.006a.194.194,0,0,0-.216.156A9.831,9.831,0,0,1,19.5,19.994,11.4,11.4,0,0,1,15.877,21.8a18.5,18.5,0,0,1-4.433.726A22,22,0,0,1,8.3,22.49,14.314,14.314,0,0,1,3,21.02,5.837,5.837,0,0,1,.7,19.076a4.1,4.1,0,0,1-.546-3.587,3.472,3.472,0,0,1,1.968-2.1,6.176,6.176,0,0,1,2.7-.576q7.721-.009,15.447-.006h.192c.024-.33.042-.648.06-.966a15.372,15.372,0,0,0-.168-3.317,7.716,7.716,0,0,0-1.32-3.443,4.2,4.2,0,0,0-1.728-1.4c-.024-.012-.048-.018-.078-.03a5.331,5.331,0,0,1,.906,2.867,5.05,5.05,0,0,1-1.554,4.079,4.284,4.284,0,0,1-2.37,1.134,6.458,6.458,0,0,1-3.167-.3A3.8,3.8,0,0,1,8.576,8.86a6.509,6.509,0,0,1,.078-4.421A5.549,5.549,0,0,1,12.529.972,7.9,7.9,0,0,1,15.181.75a10.061,10.061,0,0,1,3.113.66,7.359,7.359,0,0,1,3.8,3.371,11.135,11.135,0,0,1,1.29,3.911,18.366,18.366,0,0,1,.186,2.927c-.006.39-.042.78-.06,1.176H26.95V0ZM19.686,15.339H4.623a1.211,1.211,0,0,0-.21.006,2.3,2.3,0,0,0-.5.132,1.561,1.561,0,0,0-.822,1.536,1.884,1.884,0,0,0,.726,1.326A5.776,5.776,0,0,0,5.966,19.37a16.24,16.24,0,0,0,3.719.624,17.1,17.1,0,0,0,4.391-.258,7.613,7.613,0,0,0,2.9-1.182,8.459,8.459,0,0,0,2.4-2.651C19.476,15.723,19.572,15.543,19.686,15.339ZM11.143,6.623c.03.258.036.516.084.774a2.284,2.284,0,0,0,.9,1.53,2.4,2.4,0,0,0,1.566.378,1.522,1.522,0,0,0,1.428-1,4.146,4.146,0,0,0,.27-1.23,3.151,3.151,0,0,0-.624-2.22A1.785,1.785,0,0,0,13.723,4.1a2.006,2.006,0,0,0-2.3,1.134A3.562,3.562,0,0,0,11.143,6.623Z" transform="translate(0)" fill="#d19050"/>
  </g>
</svg>
