<svg xmlns="http://www.w3.org/2000/svg" width="auto" height="20" viewBox="0 0 36.615 37.9">
  <g id="noun_Taxi_3487507" transform="translate(-7.307 -7.526)">
    <path id="Path_210" data-name="Path 210" d="M40.128,25.161,39.194,17a8.234,8.234,0,0,0-7.543-5.61V8.834a1.307,1.307,0,0,0-1.307-1.308H20.883a1.307,1.307,0,0,0-1.308,1.307V11.37h-.4A8.247,8.247,0,0,0,11.2,17.509l-.939,8.211a8.042,8.042,0,0,0-2.954,6.335,7.93,7.93,0,0,0,3.606,6.793v4.043a2.53,2.53,0,0,0,5.059,0V39.781h17.68v3.111a2.53,2.53,0,0,0,5.059.011s0-.007,0-.011v-3.35a7.631,7.631,0,0,0,5.206-7.487A7.888,7.888,0,0,0,40.128,25.161ZM22.191,10.142h6.844V11.37H22.191ZM13.83,18.91a6.614,6.614,0,0,1,6.479-4.344h9.913a6.69,6.69,0,0,1,6.355,3.986l.762,5.793c-.1,0-.189-.016-.285-.016H14.173a6.073,6.073,0,0,0-1.068.1Zm.4,16.318a3.311,3.311,0,1,1,3.311-3.311h0A3.311,3.311,0,0,1,14.225,35.228Zm21.958,0a3.311,3.311,0,1,1,3.311-3.311,3.311,3.311,0,0,1-3.311,3.311Z" transform="translate(0 0)" fill="#d19050"/>
  </g>
</svg>
