<svg id="noun_check_body_temperature_3639801" data-name="noun_check body temperature_3639801" xmlns="http://www.w3.org/2000/svg" width="auto" height="20" viewBox="0 0 44.435 39.728">
  <path id="Path_168" data-name="Path 168" d="M35.472,31.041a2.727,2.727,0,0,1-.232,2.293.446.446,0,0,0-.062.339,2.368,2.368,0,0,0,1.076,1.386,1.57,1.57,0,0,0-.65.881.445.445,0,0,0,.033.273,6.477,6.477,0,0,0,.857,1.37c-.124.753-.393,3.124,1.006,4.031a4.619,4.619,0,0,0,2.8.352c1.328-.091,2.16-.1,2.508.567.29.55.393,1.684-.749,3.964-.319.637-1.171,2.334.174,3.352a.44.44,0,0,0,.269.091H56.967a.433.433,0,0,0,.2-.05,1.849,1.849,0,0,0,1.068-2.073c-1.076-3.559-1.817-8.533.778-12.03,4.333-5.839,5.591-11.339,3.737-16.342-2.479-6.687-9.034-10.288-16.305-8.959-4.784.869-10.329,4.093-10.226,10.3,0,.228.008.455.017.687.046,1.635.087,3.178-.778,4.283a18.786,18.786,0,0,1-1.68,1.833c-.575.571-.923.915-1.01,1.3a.83.83,0,0,0,.141.65A4.967,4.967,0,0,0,35.472,31.041Z" transform="translate(-19.146 -10.213)" fill="#d19050"/>
  <path id="Path_169" data-name="Path 169" d="M15,56.925a4.115,4.115,0,0,0,.558-8.192V30.023a.5.5,0,0,0-.5-.5h-.118a.5.5,0,0,0-.5.5v18.71A4.115,4.115,0,0,0,15,56.925Z" transform="translate(-8.193 -19.883)" fill="#d19050"/>
  <path id="Path_170" data-name="Path 170" d="M12.3,53.9A6.8,6.8,0,0,0,16.794,41.99V22.608a4.491,4.491,0,0,0-8.983,0V41.99A6.8,6.8,0,0,0,12.3,53.9ZM7.811,43.609a5.575,5.575,0,0,1,1.117-1.089V40.257h1.444V39.14H8.928V37.559h1.444V36.442H8.928V34.861h1.444V33.744H8.928V32.162h1.444V31.046H8.928V29.464h1.444V28.347H8.928V26.766h1.444V25.649H8.928V24.067h1.444V22.951H8.928v-.343A3.377,3.377,0,0,1,12.3,19.23h.005a3.377,3.377,0,0,1,3.372,3.378V42.521a5.686,5.686,0,1,1-7.866,1.089Z" transform="translate(-5.499 -14.171)" fill="#d19050"/>
</svg>
