<svg id="Group_5" data-name="Group 5" xmlns="http://www.w3.org/2000/svg" width="auto" height="25" viewBox="0 0 39.73 39.476">
  <path id="XMLID_47_" d="M80.776,2.8h7.382l.6,3.616V8.977l-2.787,4.294-3.39,1.205-.3,1.205-3.164-2.411-2.637-3.239L74.9,7.922V4.533" transform="translate(-61.965 -0.687)" fill="#d19050"/>
  <path id="XMLID_42_" d="M85.2,19.9a12.042,12.042,0,0,0-7.608,2.712,12.217,12.217,0,1,0,0,19.058A12.217,12.217,0,0,0,92.886,22.612,11.972,11.972,0,0,0,85.2,19.9ZM77.594,37.15a9.112,9.112,0,0,1,0-10.094A9.112,9.112,0,0,1,77.594,37.15ZM60.8,32.1a9.163,9.163,0,0,1,9.19-9.115,9.6,9.6,0,0,1,5.5,1.808,12.2,12.2,0,0,0,0,14.614A9.2,9.2,0,0,1,60.8,32.1ZM85.2,41.218a9.158,9.158,0,0,1-5.5-1.883,12.2,12.2,0,0,0,0-14.614,9.145,9.145,0,0,1,11,14.614A8.548,8.548,0,0,1,85.2,41.218Z" transform="translate(-57.729 -4.906)" fill="#d19050"/>
  <path id="XMLID_39_" d="M80.08,16.195a1.546,1.546,0,0,0,2.185,0h0l6.1-6.1a5.843,5.843,0,0,0,.151-8.286A6.033,6.033,0,0,0,81.134.9,5.925,5.925,0,0,0,73,2.711a5.847,5.847,0,0,0,.9,7.382Zm-3.992-12.2a2.536,2.536,0,0,1,1.959-.9A2.735,2.735,0,0,1,80,3.916a1.546,1.546,0,0,0,2.185,0h0a2.784,2.784,0,0,1,3.992.3,2.851,2.851,0,0,1,0,3.691l-5.047,5.047L76.087,7.909a2.775,2.775,0,0,1,0-3.992v.075Z" transform="translate(-61.269 0.004)" fill="#d19050"/>
</svg>
