<svg xmlns="http://www.w3.org/2000/svg" width="auto" height="15" viewBox="0 0 29.868 24.272">
  <g id="Group_609" data-name="Group 609" transform="translate(0.075 0.037)">
    <path id="Path_160" data-name="Path 160" d="M14.884,20.518a1.858,1.858,0,1,0,1.858,1.858,1.855,1.855,0,0,0-1.858-1.858Zm0-13.076A15.007,15.007,0,0,0,4.2,11.823a1.823,1.823,0,0,0,0,2.555h0a1.823,1.823,0,0,0,2.555,0,11.572,11.572,0,0,1,8.131-3.451,11.361,11.361,0,0,1,8.064,3.451,1.864,1.864,0,0,0,2.589,0,1.823,1.823,0,0,0,0-2.555h0A15.127,15.127,0,0,0,14.884,7.442Zm0,6.538a8.335,8.335,0,0,0-6.04,2.589,1.8,1.8,0,0,0,0,2.489,1.673,1.673,0,0,0,2.356.066l.066-.066a4.884,4.884,0,0,1,6.9-.332,3.129,3.129,0,0,1,.332.332,1.673,1.673,0,0,0,2.356.066l.066-.066a1.8,1.8,0,0,0,0-2.489A8.391,8.391,0,0,0,14.884,13.98Zm14.4-7.8a19.787,19.787,0,0,0-28.01-.8c-.265.265-.564.531-.83.83a1.823,1.823,0,0,0,0,2.555,1.714,1.714,0,0,0,2.389.066L2.9,8.77A16.294,16.294,0,0,1,14.851,3.792,16.167,16.167,0,0,1,26.8,8.77a1.714,1.714,0,0,0,2.389.066l.066-.066A1.864,1.864,0,0,0,29.287,6.181Z" transform="translate(0 0)" fill="#d19050"/>
  </g>
</svg>
