<svg xmlns="http://www.w3.org/2000/svg" width="auto" height="75" viewBox="0 0 106.43 106.43">
  <g id="Group_636" data-name="Group 636" transform="translate(-462.621 -4279)">
    <g id="noun_Calendar_1977386" transform="translate(462.621 4279)">
      <path id="Path_226" data-name="Path 226" d="M110.213,16.156H94.85V8.217a2.217,2.217,0,0,0-4.435,0v7.939H81.483V8.217a2.217,2.217,0,1,0-4.435,0v7.939H41.381V8.217a2.217,2.217,0,0,0-4.435,0v7.939H28.013V8.217a2.217,2.217,0,0,0-4.435,0v7.939H8.217A2.217,2.217,0,0,0,6,18.374v91.839a2.217,2.217,0,0,0,2.217,2.217h102a2.217,2.217,0,0,0,2.217-2.217V18.374A2.217,2.217,0,0,0,110.213,16.156ZM108,108H10.435V37.644H108Zm0-74.786H10.435V20.591H23.578V26.9a2.217,2.217,0,0,0,4.435,0V20.591h8.934V26.9a2.217,2.217,0,0,0,4.435,0V20.591H77.048V26.9a2.217,2.217,0,1,0,4.435,0V20.591h8.932V26.9a2.217,2.217,0,0,0,4.435,0V20.591H108Z" transform="translate(-6 -6)" fill="#d19050"/>
      <path id="Path_227" data-name="Path 227" d="M28.75,38.577H39.69a2.217,2.217,0,0,0,2.217-2.217V25.42A2.217,2.217,0,0,0,39.69,23.2H28.75a2.217,2.217,0,0,0-2.217,2.217V36.36A2.217,2.217,0,0,0,28.75,38.577Zm2.217-10.94h6.5v6.506h-6.5Z" transform="translate(18.995 14.941)" fill="#d19050"/>
      <path id="Path_228" data-name="Path 228" d="M37.193,38.577H48.134a2.217,2.217,0,0,0,2.217-2.217V25.42A2.217,2.217,0,0,0,48.134,23.2H37.193a2.217,2.217,0,0,0-2.217,2.217V36.36A2.217,2.217,0,0,0,37.193,38.577Zm2.217-10.94s4.88-1.626,6.507,0,0,6.506,0,6.506H39.41Z" transform="translate(29.272 14.941)" fill="#d19050"/>
      <path id="Path_229" data-name="Path 229" d="M45.636,38.577H56.578a2.217,2.217,0,0,0,2.217-2.217V25.42A2.217,2.217,0,0,0,56.578,23.2H45.636a2.217,2.217,0,0,0-2.217,2.217V36.36A2.217,2.217,0,0,0,45.636,38.577Zm2.217-10.94H54.36v6.506H47.854Z" transform="translate(39.55 14.941)" fill="#d19050"/>
      <path id="Path_230" data-name="Path 230" d="M11.864,48.043H22.8a2.217,2.217,0,0,0,2.217-2.217V34.886A2.217,2.217,0,0,0,22.8,32.668H11.864a2.217,2.217,0,0,0-2.217,2.217v10.94A2.217,2.217,0,0,0,11.864,48.043ZM14.081,37.1h6.5v6.506h-6.5Z" transform="translate(-1.561 26.463)" fill="#d19050"/>
      <path id="Path_231" data-name="Path 231" d="M20.307,48.043H31.246a2.217,2.217,0,0,0,2.217-2.217V34.886a2.217,2.217,0,0,0-2.217-2.217H20.307a2.217,2.217,0,0,0-2.217,2.217v10.94A2.217,2.217,0,0,0,20.307,48.043ZM22.524,37.1h6.5v6.506h-6.5Z" transform="translate(8.717 26.463)" fill="#d19050"/>
      <path id="Path_232" data-name="Path 232" d="M28.75,48.043H39.69a2.217,2.217,0,0,0,2.217-2.217V34.886a2.217,2.217,0,0,0-2.217-2.217H28.75a2.217,2.217,0,0,0-2.217,2.217v10.94A2.217,2.217,0,0,0,28.75,48.043ZM30.968,37.1,28.75,45.826l8.722-2.217h-6.5Z" transform="translate(18.995 26.463)" fill="#d19050"/>
      <path id="Path_233" data-name="Path 233" d="M37.193,48.043H48.134a2.217,2.217,0,0,0,2.217-2.217V34.886a2.217,2.217,0,0,0-2.217-2.217H37.193a2.217,2.217,0,0,0-2.217,2.217v10.94A2.217,2.217,0,0,0,37.193,48.043ZM39.41,37.1h6.507v6.506H39.41Z" transform="translate(29.272 26.463)" fill="#d19050"/>
      <path id="Path_234" data-name="Path 234" d="M45.636,48.043H56.578a2.217,2.217,0,0,0,2.217-2.217V34.886a2.217,2.217,0,0,0-2.217-2.217H45.636a2.217,2.217,0,0,0-2.217,2.217v10.94A2.217,2.217,0,0,0,45.636,48.043ZM47.854,37.1H54.36v6.506H47.854Z" transform="translate(39.55 26.463)" fill="#d19050"/>
      <path id="Path_235" data-name="Path 235" d="M11.864,57.51H22.8a2.217,2.217,0,0,0,2.217-2.217V44.352A2.217,2.217,0,0,0,22.8,42.135H11.864a2.217,2.217,0,0,0-2.217,2.217v10.94A2.217,2.217,0,0,0,11.864,57.51Zm2.217-10.94h6.5v6.506h-6.5Z" transform="translate(-1.561 37.986)" fill="#d19050"/>
      <path id="Path_236" data-name="Path 236" d="M20.307,57.51H31.246a2.217,2.217,0,0,0,2.217-2.217V44.352a2.217,2.217,0,0,0-2.217-2.217H20.307a2.217,2.217,0,0,0-2.217,2.217v10.94A2.217,2.217,0,0,0,20.307,57.51Zm2.217-10.94h6.5v6.506h-6.5Z" transform="translate(8.717 37.986)" fill="#d19050"/>
      <path id="Path_237" data-name="Path 237" d="M28.75,57.51H39.69a2.217,2.217,0,0,0,2.217-2.217V44.352a2.217,2.217,0,0,0-2.217-2.217H28.75a2.217,2.217,0,0,0-2.217,2.217v10.94A2.217,2.217,0,0,0,28.75,57.51Zm2.217-10.94h6.5v6.506h-6.5Z" transform="translate(18.995 37.986)" fill="#d19050"/>
    </g>
  </g>
</svg>
