<svg id="Group_1115" data-name="Group 1115" xmlns="http://www.w3.org/2000/svg" width="auto" height="80" viewBox="0 0 124.4 101.251">
  <path id="Path_361" data-name="Path 361" d="M0,42V92.1L16.3,100a11.665,11.665,0,0,0,6.6,1V61.6h5.4V99l8.1-4.2a11.224,11.224,0,0,1,10.1-.1l.8.4V61.6h5.4v36l5.1,2.5a11.228,11.228,0,0,0,10.1-.1l3.8-2V61.6H77V95.2l.9-.4A11.224,11.224,0,0,1,88,94.7l8.1,3.9v-37h5.4v39.3a11.325,11.325,0,0,0,7.9-.9l15-7.8V42Z" fill="#801c17"/>
  <path id="Path_362" data-name="Path 362" d="M49.8,23.9A17.576,17.576,0,0,0,39.7,9.1a15.281,15.281,0,0,0-4.6-1.4h-.2l-.3-2.6A5.6,5.6,0,0,0,37.9,0H26.7A5.6,5.6,0,0,0,30,5.1l-.3,2.6h-.2A17.464,17.464,0,0,0,14.8,23.9a4.236,4.236,0,0,0-2.6,3.9H52.4A4.236,4.236,0,0,0,49.8,23.9Zm-20-12.3c-.2.1-.4.3-.6.4A18.02,18.02,0,0,0,22,21.7H18.5A14.08,14.08,0,0,1,29,11.3c.1,0,.2,0,.2-.1l1.8-.3c-.4.2-.8.5-1.2.7Z" fill="#d19050"/>
  <path id="Path_363" data-name="Path 363" d="M55.1,30.1H9.5L6.9,36.5H57.6Z" fill="#d19050"/>
  <path id="Path_364" data-name="Path 364" d="M109.5,23.9A17.576,17.576,0,0,0,99.4,9.1a15.281,15.281,0,0,0-4.6-1.4h-.2l-.3-2.6A5.6,5.6,0,0,0,97.6,0H86.5a5.6,5.6,0,0,0,3.3,5.1l-.3,2.6h-.2A17.551,17.551,0,0,0,74.5,23.9a4.236,4.236,0,0,0-2.6,3.9h40.2A4.236,4.236,0,0,0,109.5,23.9Zm-20-12.3c-.2.1-.4.3-.6.4a18.02,18.02,0,0,0-7.2,9.7H78.2A14.08,14.08,0,0,1,88.7,11.3c.1,0,.2,0,.2-.1l1.8-.3a12.75,12.75,0,0,1-1.2.7Z" fill="#d19050"/>
  <path id="Path_365" data-name="Path 365" d="M114.8,30.1H69.2l-2.5,6.4h50.7Z" fill="#d19050"/>
</svg>
