<svg id="XMLID_56_" xmlns="http://www.w3.org/2000/svg" width="auto" height="25" viewBox="0 0 62.049 61.926">
  <g id="XMLID_86_" transform="translate(7.141 7.141)">
    <ellipse id="XMLID_92_" cx="23.884" cy="23.884" rx="23.884" ry="23.884" fill="#660500"/>
  </g>
  <g id="XMLID_58_">
    <path id="XMLID_59_" d="M114.124,61.926h-.246V60.695h.246c1.108,0,2.216-.123,3.324-.123l.123,1.231A32.258,32.258,0,0,1,114.124,61.926Zm-4.063-.246a19.63,19.63,0,0,1-3.693-.739l.246-1.231c1.108.246,2.339.492,3.57.739Zm11.2-.492-.246-1.231a16.112,16.112,0,0,0,3.447-1.108l.369,1.108A30.4,30.4,0,0,1,121.265,61.187ZM102.8,59.833c-1.108-.492-2.339-.985-3.447-1.6l.616-1.108a19.636,19.636,0,0,0,3.324,1.477Zm25.484-1.354-.616-1.108a25.456,25.456,0,0,0,3.078-1.847l.739.985A17.222,17.222,0,0,1,128.282,58.479ZM96.15,56.263c-.985-.739-1.97-1.477-2.955-2.339l.862-.985a16.023,16.023,0,0,0,2.832,2.216Zm38.411-1.97-.862-.985a25.592,25.592,0,0,0,2.585-2.585l.862.862A26.884,26.884,0,0,1,134.561,54.293ZM90.61,51.215c-.862-.985-1.6-1.97-2.339-2.955l.985-.739a16.022,16.022,0,0,0,2.216,2.832Zm48.876-2.585-.985-.739a15.7,15.7,0,0,0,1.847-3.078l1.108.616A27.826,27.826,0,0,1,139.486,48.63ZM86.424,44.936a20.751,20.751,0,0,1-1.477-3.447l1.108-.369a19.636,19.636,0,0,0,1.477,3.324Zm56.632-2.955-1.108-.492c.369-1.108.739-2.339,1.108-3.447l1.231.246C143.918,39.642,143.425,40.873,143.056,41.981ZM83.839,37.919c-.246-1.231-.492-2.462-.616-3.693l1.231-.123a36.086,36.086,0,0,0,.616,3.57Zm61.064-3.2-1.231-.123c.123-1.231.246-2.462.246-3.57h1.231C145.026,32.256,145.026,33.487,144.9,34.718ZM84.331,30.409H83.1c0-1.231.123-2.462.246-3.693l1.231.123A32.524,32.524,0,0,0,84.331,30.409Zm59.464-1.847a35.539,35.539,0,0,0-.492-3.57l1.231-.246a19.008,19.008,0,0,1,.492,3.693ZM85.316,23.268,84.085,22.9a30.4,30.4,0,0,1,1.231-3.57l1.108.492C86.055,20.929,85.685,22.16,85.316,23.268Zm57-1.847c-.369-1.108-.862-2.216-1.354-3.324l1.108-.492c.492,1.108.985,2.339,1.477,3.447Zm-54.293-4.8L86.917,16a27.832,27.832,0,0,1,1.97-3.2l.985.739C89.256,14.527,88.64,15.512,88.025,16.62ZM139.116,14.9c-.616-.985-1.354-1.97-2.093-2.955l.985-.739a27.937,27.937,0,0,1,2.216,3.078ZM92.333,10.711l-.985-.862a26.88,26.88,0,0,1,2.708-2.585l.739.985A23.248,23.248,0,0,0,92.333,10.711Zm42.228-1.354a25.977,25.977,0,0,0-2.832-2.339l.739-.985A27.056,27.056,0,0,1,135.3,8.495ZM97.75,6.033l-.616-.985A17.577,17.577,0,0,1,100.459,3.2l.492,1.108C99.843,4.8,98.858,5.417,97.75,6.033Zm31.024-.985a25.875,25.875,0,0,0-3.2-1.6l.492-1.108a27.632,27.632,0,0,1,3.324,1.6Zm-24.5-2.216-.369-1.108c1.231-.369,2.462-.739,3.57-.985l.246,1.231A35.257,35.257,0,0,0,104.275,2.832Zm17.851-.492a16.7,16.7,0,0,0-3.57-.739L118.68.369l3.693.739Zm-10.834-.985L111.17.123C112.4,0,113.632,0,114.986,0V1.231C113.755,1.231,112.524,1.231,111.293,1.354Z" transform="translate(-83.1 0)" fill="#660500"/>
  </g>
</svg>
