<svg id="XMLID_27_" xmlns="http://www.w3.org/2000/svg" width="auto" height="25" viewBox="0 0 56.878 60.079">
  <path id="XMLID_28_" d="M345.278,18.936H334.2V6.378A4.676,4.676,0,0,0,329.519,1.7h-22.16a4.676,4.676,0,0,0-4.678,4.678V19.059H291.6a1.6,1.6,0,0,0,0,3.2h1.6V60.179a1.6,1.6,0,1,0,3.2,0V28.415H310.56v3.2h-6.279a4.676,4.676,0,0,0-4.678,4.678v3.2a1.63,1.63,0,0,0,1.6,1.6h1.6V60.055a1.6,1.6,0,1,0,3.2,0V47.375h25.238V60.055a1.6,1.6,0,0,0,3.2,0V41.1h1.6a1.63,1.63,0,0,0,1.6-1.6v-3.2a4.676,4.676,0,0,0-4.678-4.678h-6.279v-3.2h13.789V59.932a1.6,1.6,0,1,0,3.2,0v-37.8h1.6a1.6,1.6,0,0,0,0-3.2ZM305.759,6.378a1.63,1.63,0,0,1,1.6-1.6h22.16a1.63,1.63,0,0,1,1.6,1.6V19.059H305.882V6.378ZM331,44.3H305.759V41.1H331Zm3.2-8v1.6H302.681v-1.6a1.63,1.63,0,0,1,1.6-1.6H332.72A1.71,1.71,0,0,1,334.2,36.295Zm-11.08-4.678h-9.48v-3.2h9.48Zm17.359-6.279h-44.2v-3.2h44.2Z" transform="translate(-290 -1.7)" fill="#660500"/>
</svg>
