<svg xmlns="http://www.w3.org/2000/svg" width="auto" height="80" viewBox="0 0 124.874 124.685">
  <g id="Group_1114" data-name="Group 1114" transform="translate(0 0.007)">
    <g id="Group_1113" data-name="Group 1113" transform="translate(0 -0.007)">
      <path id="Path_352" data-name="Path 352" d="M23.744,22.861a5.515,5.515,0,0,0,.816,4.693,6.166,6.166,0,0,0,3.877,2.857A6.077,6.077,0,0,0,31.5,34.083a6.825,6.825,0,0,0,4.9.408,6.2,6.2,0,0,0,4.285,1.632h.2a5.743,5.743,0,0,0,4.285-2.04,5.515,5.515,0,0,0,4.693-.816,6.143,6.143,0,0,0,2.653-3.877,6.078,6.078,0,0,0,3.673-3.061,6.365,6.365,0,0,0,.408-4.693,6.2,6.2,0,0,0,1.632-4.285v-.408a6.788,6.788,0,0,0-2.244-4.285,5.611,5.611,0,0,0-1.02-4.693,6.864,6.864,0,0,0-4.081-2.653A6.413,6.413,0,0,0,47.617,1.64a5.607,5.607,0,0,0-4.081-.408,6.215,6.215,0,0,0-8.162.612,6.252,6.252,0,0,0-4.693.612,6.166,6.166,0,0,0-2.857,3.877,5.818,5.818,0,0,0-3.877,3.061,6.374,6.374,0,0,0-.612,4.693A6.33,6.33,0,0,0,21.5,18.576,7.929,7.929,0,0,0,23.744,22.861Zm16.323-10a5.1,5.1,0,1,1-5.1,5.1A5.052,5.052,0,0,1,40.068,12.862Z" transform="translate(22.369 0.007)" fill="#d19050"/>
      <path id="Path_353" data-name="Path 353" d="M11.852,25.052a5.92,5.92,0,0,0,.408,4.9,6.077,6.077,0,0,0,3.673,3.061,6.864,6.864,0,0,0,2.653,4.081,6.327,6.327,0,0,0,4.693.816,5.743,5.743,0,0,0,4.285,2.04h.2a6.585,6.585,0,0,0,4.285-1.632,6.825,6.825,0,0,0,4.9-.408,7.668,7.668,0,0,0,3.061-3.673,11.862,11.862,0,0,1-3.469-3.673,12.425,12.425,0,0,1-4.489-4.081c0-.2-.2-.2-.2-.408a5.645,5.645,0,0,1-3.265,1.02,5.1,5.1,0,0,1,0-10.2h.2a6.941,6.941,0,0,1-.2-2.04,12.075,12.075,0,0,1,1.428-5.917,10.981,10.981,0,0,1,.816-4.489,6.005,6.005,0,0,0-6.121.816,5.181,5.181,0,0,0-3.877.408A6.413,6.413,0,0,0,17.565,9.34a6.058,6.058,0,0,0-4.081,2.653,6.434,6.434,0,0,0-1.02,4.693,6.788,6.788,0,0,0-2.244,4.285A4.632,4.632,0,0,0,11.852,25.052Z" transform="translate(10.593 4.142)" fill="#d19050"/>
      <path id="Path_354" data-name="Path 354" d="M37.216,33.83c-.2.2-.612.408-.816.612a6.077,6.077,0,0,0,3.061,3.673,6.292,6.292,0,0,0,4.693.408,6.2,6.2,0,0,0,4.285,1.632h.2a5.743,5.743,0,0,0,4.285-2.04A6.327,6.327,0,0,0,57.62,37.3a6.058,6.058,0,0,0,2.653-4.081,6.078,6.078,0,0,0,3.673-3.061,6.825,6.825,0,0,0,.408-4.9,7.13,7.13,0,0,0,1.632-4.489h0a6.788,6.788,0,0,0-2.244-4.285,5.611,5.611,0,0,0-1.02-4.693A6.058,6.058,0,0,0,58.641,9.14a6.413,6.413,0,0,0-3.265-3.673A5.181,5.181,0,0,0,51.5,5.06a6.442,6.442,0,0,0-6.325-.816A7.044,7.044,0,0,1,45.786,6.9a11.378,11.378,0,0,1,2.04,5.713v.816a10.364,10.364,0,0,1-.612,3.469h.612a5.1,5.1,0,0,1,0,10.2,4.634,4.634,0,0,1-3.265-1.224A12.42,12.42,0,0,1,41.3,29.137,9.226,9.226,0,0,1,37.216,33.83Z" transform="translate(37.871 3.934)" fill="#d19050"/>
      <path id="Path_355" data-name="Path 355" d="M122.221,79.1h-4.9V38.9L99.573,45.021,93.043,78.892H32.035L25.505,45.021,7.754,38.9V78.892h-5.1a2.653,2.653,0,0,0,0,5.305H122.221a2.7,2.7,0,0,0,2.653-2.653A2.663,2.663,0,0,0,122.221,79.1Z" transform="translate(0 40.488)" fill="#801c17"/>
      <path id="Path_356" data-name="Path 356" d="M56.959,20.412a11.347,11.347,0,0,1-10,6.529A10.337,10.337,0,0,1,43.9,28.37a98.649,98.649,0,0,0,2.653,14.283l.2.2c.408.408,7.754,7.55,22.037.816A102.968,102.968,0,0,0,57.979,19.8,1.735,1.735,0,0,0,56.959,20.412Z" transform="translate(45.675 20.616)" fill="#801c17"/>
      <path id="Path_357" data-name="Path 357" d="M46.2,35.328a58.068,58.068,0,0,0,4.489,9.794L68.645,38.8a42.192,42.192,0,0,0-1.224-4.9,30.71,30.71,0,0,1-12.855,3.061A30.383,30.383,0,0,1,46.2,35.328Z" transform="translate(48.068 35.286)" fill="#801c17"/>
      <path id="Path_358" data-name="Path 358" d="M25.224,37.04a24.9,24.9,0,0,1-6.937.816A39.074,39.074,0,0,1,4.412,35c-.2,1.02-.408,1.836-.612,2.653l17.956,6.325A54.287,54.287,0,0,0,25.224,37.04Z" transform="translate(3.954 36.43)" fill="#801c17"/>
      <path id="Path_359" data-name="Path 359" d="M26.533,46.634a114.227,114.227,0,0,0,3.673-18.16,14.066,14.066,0,0,1-3.061-1.428,10.632,10.632,0,0,1-5.917-1.836,10.264,10.264,0,0,1-4.081-4.693,3.582,3.582,0,0,1-1.02-.816A104.831,104.831,0,0,0,4.7,45.817C15.106,50.1,22.452,48.47,26.533,46.634Z" transform="translate(4.89 20.512)" fill="#801c17"/>
    </g>
    <path id="Path_360" data-name="Path 360" d="M73.12,56.8V69.046a3.576,3.576,0,0,1-3.469,3.469h-1.02v2.653a1.224,1.224,0,0,1-2.449,0V72.719H23.537v2.449a1.224,1.224,0,0,1-2.449,0V72.719h-1.02A3.576,3.576,0,0,1,16.6,69.25V56.8A5.4,5.4,0,0,1,21.905,51.5,5.268,5.268,0,0,1,27.21,56.8V61.5H61.9V56.8A5.4,5.4,0,0,1,67.2,51.5C70.875,51.5,73.12,53.947,73.12,56.8Zm-43.053,0v2.449h30.2V56.8a7.666,7.666,0,0,1,7.55-7.55h.408a10.044,10.044,0,0,0-9.59-7.754H32.107a9.828,9.828,0,0,0-9.59,7.754h0A7.666,7.666,0,0,1,30.067,56.8Z" transform="translate(17.271 43.185)" fill="#801c17"/>
  </g>
</svg>
