<svg id="Group_634" data-name="Group 634" xmlns="http://www.w3.org/2000/svg" width="auto" height="75" viewBox="0 0 71.249 102.584">
  <path id="Path_248" data-name="Path 248" d="M69.465,39.722a9.313,9.313,0,0,0-4.016.8,8.786,8.786,0,0,0-7.918-5.967,7.215,7.215,0,0,0-4.819,1.147A8.939,8.939,0,0,0,45.6,31.231a12.018,12.018,0,0,0-3.442.574V23.2A9.332,9.332,0,0,0,33.894,13.9,8.825,8.825,0,0,0,27.353,16.2,9.083,9.083,0,0,0,24.6,22.51V55.328l-2.524-2.295c-4.016-3.442-7.918-4.016-11.13-2.065A8.273,8.273,0,0,0,6.928,56.59,9.116,9.116,0,0,0,8.305,63.7L29.075,95.145v8.262a3,3,0,0,0,2.869,2.869H67.63a3,3,0,0,0,2.869-2.869V92.391l5.967-11.016a13.9,13.9,0,0,0,1.492-5.967V49.017A9.187,9.187,0,0,0,69.465,39.722Zm2.754,35.686h0a8.345,8.345,0,0,1-.8,3.328L64.876,90.326a2.726,2.726,0,0,0-.344,1.377v8.836H34.812v-6.2a4.767,4.767,0,0,0-.344-1.492L12.78,60.721a3.321,3.321,0,0,1-.574-2.754c.229-.344.344-1.377,1.377-1.951.344-.229,1.492-.918,4.59,1.492l4.819,4.246a4,4,0,0,1,1.377,2.869V66.8a2.869,2.869,0,0,0,5.737,0V22.625a2.873,2.873,0,0,1,.918-2.065,2.722,2.722,0,0,1,2.295-.8A3.227,3.227,0,0,1,36.189,23.2V53.607a2.869,2.869,0,1,0,5.737,0V40.181a2.873,2.873,0,0,1,.918-2.065,2.722,2.722,0,0,1,2.295-.8,3.227,3.227,0,0,1,2.869,3.442V54.066a2.869,2.869,0,1,0,5.737,0V43.853a3.411,3.411,0,0,1,.918-2.295,2.722,2.722,0,0,1,2.295-.8A3.227,3.227,0,0,1,59.827,44.2v13.77a2.869,2.869,0,1,0,5.737,0V49.246a2.873,2.873,0,0,1,.918-2.065,2.722,2.722,0,0,1,2.295-.8,3.227,3.227,0,0,1,2.869,3.442l.574,25.589Z" transform="translate(-6.708 -3.692)" fill="#d19050"/>
  <path id="Path_249" data-name="Path 249" d="M47.809,30.244a3.042,3.042,0,0,0,3.442-2.295,22.409,22.409,0,0,0,.344-3.9,19.048,19.048,0,0,0-38.1,0,19.251,19.251,0,0,0,2.524,9.409,2.99,2.99,0,0,0,2.524,1.492,4.843,4.843,0,0,0,1.377-.344,2.868,2.868,0,0,0,1.147-3.9,12.959,12.959,0,0,1-1.721-6.541,13.311,13.311,0,0,1,26.621,0,11.64,11.64,0,0,1-.229,2.754A2.412,2.412,0,0,0,47.809,30.244Z" transform="translate(-5.706 -5)" fill="#d19050"/>
</svg>
