<svg id="Group_607" data-name="Group 607" xmlns="http://www.w3.org/2000/svg" width="auto" height="20" viewBox="0 0 40.258 40.258">
  <path id="Path_155" data-name="Path 155" d="M35.851,0H4.407A4.431,4.431,0,0,0,0,4.407V35.851a4.431,4.431,0,0,0,4.407,4.407H35.851a4.431,4.431,0,0,0,4.407-4.407V4.407A4.431,4.431,0,0,0,35.851,0Zm1.7,35.851a1.7,1.7,0,0,1-1.7,1.7H4.407a1.7,1.7,0,0,1-1.7-1.7V4.407a1.7,1.7,0,0,1,1.7-1.7H35.851a1.7,1.7,0,0,1,1.7,1.7Z" fill="#d19050"/>
  <circle id="Ellipse_15" data-name="Ellipse 15" cx="2.839" cy="2.839" r="2.839" transform="translate(9.874 6.187)" fill="#d19050"/>
  <path id="Path_156" data-name="Path 156" d="M27.659,32.754A3.075,3.075,0,0,0,24.608,30h-2.67a3.075,3.075,0,0,0-3.051,2.754l-.593,5.806a1.025,1.025,0,0,0,.636,1.059l1.441.593a.673.673,0,0,1,.339.424l.763,9.747a.987.987,0,0,0,1.017.932H24.1a1.018,1.018,0,0,0,1.017-.932l.763-9.747a.413.413,0,0,1,.339-.424l1.441-.593a1.025,1.025,0,0,0,.636-1.059Z" transform="translate(-10.539 -17.287)" fill="#d19050"/>
  <path id="Path_157" data-name="Path 157" d="M57.144,22.395a.951.951,0,0,0-1.61,0L50.914,29.98a.952.952,0,0,0,.805,1.441h9.238a.952.952,0,0,0,.805-1.441Z" transform="translate(-29.26 -12.648)" fill="#d19050"/>
  <path id="Path_158" data-name="Path 158" d="M60.958,50.7H51.72a.952.952,0,0,0-.805,1.441l4.619,7.585a.951.951,0,0,0,1.61,0l4.619-7.585A.952.952,0,0,0,60.958,50.7Z" transform="translate(-29.26 -29.215)" fill="#d19050"/>
</svg>
