<svg id="Group_10" data-name="Group 10" xmlns="http://www.w3.org/2000/svg" width="auto" height="25" viewBox="0 0 41.067 38.907">
  <path id="XMLID_41_" d="M.267.223a.862.862,0,0,0,0,1.248h0l.475.475L1.991.7,1.515.223a.984.984,0,0,0-1.248,0Z" transform="translate(29.564 28.659) rotate(180)" fill="#d19050"/>
  <path id="XMLID_40_" d="M.267.267a.862.862,0,0,0,0,1.248h0l.475.475L1.991.743,1.515.267a.862.862,0,0,0-1.248,0Z" transform="translate(33.761 25.495) rotate(180)" fill="#d19050"/>
  <g id="Group_4" data-name="Group 4">
    <path id="XMLID_30_" d="M121.556,1.433a11.421,11.421,0,0,0-12.086.549c-.481.343-.893.687-1.373,1.03a10.236,10.236,0,0,0-1.373-1.03,11.567,11.567,0,0,0-12.086-.549A12.475,12.475,0,0,0,87.7,12.283a15.132,15.132,0,0,0,3.228,8.447l.206.206-.481.618a3.441,3.441,0,0,0,0,4.807,3.5,3.5,0,0,0,2.4,1.03h.275v.275A3.444,3.444,0,0,0,96.765,31.1h.275a3.4,3.4,0,0,0,5.769,2.678l.343-.343a3.9,3.9,0,0,0,.824,1.236L107.2,37.9a3.441,3.441,0,0,0,4.807,0,3.832,3.832,0,0,0,1.03-2.4v-.275h.275a3.444,3.444,0,0,0,3.434-3.434h0v-.275h.275a3.444,3.444,0,0,0,3.434-3.434h0V27.8h.275a3.43,3.43,0,0,0,3.434-3.365,3.327,3.327,0,0,0-.481-1.786l1.785-1.923.069-.069a14.814,14.814,0,0,0,3.228-8.447A13.167,13.167,0,0,0,121.556,1.433ZM90.069,12.352c0-3.846-.721,9.065,2.987,7.142,1.511-.824,3.914-5.769,5.7-5.837,1.923,0,3.64-6.8,5.219-5.629a27.143,27.143,0,0,1,4.258,3.651l2.2,2.665L112.9,12.9c.618.549-.137-3.3,0-2.884a2.679,2.679,0,0,1-.687,2.335,3.125,3.125,0,0,1-2.06.549L104.8,7.545a.79.79,0,0,0-1.167,0l-.618-.475L93.881,18.4,92.37,19.838l.687-.607C91.271,16.827,90.069,14.618,90.069,12.352ZM111.255,35.5a1.72,1.72,0,0,1-.549,1.236,1.741,1.741,0,0,1-2.472,0L105.006,33.5a1.748,1.748,0,1,1,2.472-2.472h0l3.228,3.228A1.608,1.608,0,0,1,111.255,35.5Zm3.159-2.4a1.741,1.741,0,0,1-2.472,0l-3.228-3.228a1.741,1.741,0,0,1,0-2.472h0a1.741,1.741,0,0,1,2.472,0l3.228,3.159a1.824,1.824,0,0,1,0,2.541Zm4.189-4.876a1.759,1.759,0,0,1-1.786,1.717,1.72,1.72,0,0,1-1.236-.549l-3.228-3.228a1.748,1.748,0,0,1,2.472-2.472l3.228,3.228a1.876,1.876,0,0,1,.549,1.3Zm3.159-2.4a1.741,1.741,0,0,1-2.472,0h0l-3.228-3.228a1.748,1.748,0,0,1,2.472-2.472l3.228,3.228a1.74,1.74,0,0,1,0,2.472Zm2.2-6.043-1.648,1.717-2.61-2.61a3.441,3.441,0,0,0-4.807,0,3.509,3.509,0,0,0-.961,2.678,3.334,3.334,0,0,0-3.708,2.953v.755a3.279,3.279,0,0,0-3.64,2.953v.618a3.291,3.291,0,0,0-3.434,2.2.24.24,0,0,0-.137.069l-1.373,1.373A1.748,1.748,0,0,1,99.168,30h0l3.228-3.228a.85.85,0,0,0-.069-1.167.836.836,0,0,0-1.1,0L98,28.834a1.748,1.748,0,0,1-2.472-2.472l3.228-3.228a.827.827,0,0,0-1.1-1.236l-.069.069-3.228,3.228a1.753,1.753,0,0,1-2.472-.275,1.855,1.855,0,0,1,0-2.2l3.228-3.228,9.2-10.1,4.944,4.945a.594.594,0,0,0,.412.206,4.839,4.839,0,0,0,3.708-.893,4.319,4.319,0,0,0,1.236-3.708c-.069-.824-.893-1.786-2.884-3.571a9.1,9.1,0,0,1-.755-.687l-1.648-1.648c.343-.275.687-.549,1.1-.824a9.723,9.723,0,0,1,10.37-.412,10.6,10.6,0,0,1,5.975,9.408,12.912,12.912,0,0,1-2.816,7.554Z" transform="translate(-87.7 0.029)" fill="#d19050"/>
  </g>
  <path id="XMLID_29_" d="M94.573,33.375a.868.868,0,0,0,.178,1.248.891.891,0,0,0,1.07,0l.475-.475L95.049,32.9Z" transform="translate(-85.551 -6.518)" fill="#d19050"/>
  <path id="XMLID_28_" d="M99.817,38.675a.882.882,0,0,0,1.248,1.248l.475-.475L100.293,38.2Z" transform="translate(-87.646 -8.669)" fill="#d19050"/>
</svg>
