<svg id="Group_1" data-name="Group 1" xmlns="http://www.w3.org/2000/svg" width="auto" height="25" viewBox="0 0 68.858 28.902">
  <ellipse id="XMLID_71_" cx="3.163" cy="3.163" rx="3.163" ry="3.163" transform="translate(3.108)" fill="#d19050"/>
  <path id="XMLID_70_" d="M138.209,43.05h-4.217a2.155,2.155,0,0,1-2.171-1.861L130.518,33a.974.974,0,1,0-1.923.31l1.3,8.187a4.153,4.153,0,0,0,4.155,3.535h4.28a.954.954,0,0,0,.93-.93A1.085,1.085,0,0,0,138.209,43.05Z" transform="translate(-128.589 -22.334)" fill="#d19050"/>
  <path id="XMLID_69_" d="M146.085,33.034a1.24,1.24,0,1,0,0-2.481h-2.667A4.276,4.276,0,0,1,141,29.809L138.58,28.2a2.764,2.764,0,0,0-1.613-.5h-.434a2.775,2.775,0,0,0-2.171.992,2.966,2.966,0,0,0-.682,2.295l1.24,7.753a1.457,1.457,0,0,0,1.426,1.24h5.706l1.426,8.125a1.457,1.457,0,0,0,1.427,1.24h.31a1.428,1.428,0,0,0,1.178-1.675l-1.675-9.3a1.457,1.457,0,0,0-1.427-1.24h-2.977l-.372-5.148a6.094,6.094,0,0,0,3.473.93A20.1,20.1,0,0,0,146.085,33.034Z" transform="translate(-130.511 -20.629)" fill="#d19050"/>
  <ellipse id="XMLID_67_" cx="3.163" cy="3.163" rx="3.163" ry="3.163" transform="translate(59.423)" fill="#d19050"/>
  <path id="XMLID_66_" d="M232.3,32.1a1.068,1.068,0,0,0-1.116.806l-1.3,8.187a2.148,2.148,0,0,1-2.171,1.861H223.43a.93.93,0,0,0,0,1.861h4.217a4.145,4.145,0,0,0,4.155-3.535l1.3-8.187A.927.927,0,0,0,232.3,32.1Z" transform="translate(-164.255 -22.296)" fill="#d19050"/>
  <path id="XMLID_65_" d="M225.424,28.792a2.8,2.8,0,0,0-2.233-.992h-.434a3.518,3.518,0,0,0-1.613.5l-2.419,1.613a4.814,4.814,0,0,1-2.419.744H213.64a1.24,1.24,0,0,0,0,2.481h2.667a7.447,7.447,0,0,0,3.473-.93l-.372,5.148h-2.977A1.411,1.411,0,0,0,215,38.592l-1.675,9.3a1.428,1.428,0,0,0,1.178,1.675h.31a1.411,1.411,0,0,0,1.427-1.24l1.427-8.125h5.706a1.411,1.411,0,0,0,1.426-1.24l1.24-7.753A2.853,2.853,0,0,0,225.424,28.792Z" transform="translate(-160.419 -20.667)" fill="#d19050"/>
  <ellipse id="XMLID_64_" cx="3.163" cy="3.163" rx="3.163" ry="3.163" transform="translate(20.164)" fill="#d19050"/>
  <path id="XMLID_63_" d="M167.149,30.095A3.182,3.182,0,0,0,164.11,27.8h-1.3a3.127,3.127,0,0,0-3.039,2.295l-.868,2.977h9.117Z" transform="translate(-140.101 -20.667)" fill="#d19050"/>
  <ellipse id="XMLID_62_" cx="3.163" cy="3.163" rx="3.163" ry="3.163" transform="translate(31.266)" fill="#d19050"/>
  <path id="XMLID_61_" d="M185.011,30.095a3.182,3.182,0,0,0-3.039-2.295h-1.364a3.127,3.127,0,0,0-3.039,2.295l-.868,2.977h9.117Z" transform="translate(-146.861 -20.667)" fill="#d19050"/>
  <ellipse id="XMLID_60_" cx="3.163" cy="3.163" rx="3.163" ry="3.163" transform="translate(42.367)" fill="#d19050"/>
  <path id="XMLID_59_" d="M202.849,30.095A3.182,3.182,0,0,0,199.81,27.8h-1.3a3.127,3.127,0,0,0-3.039,2.295l-.868,2.977h9.117Z" transform="translate(-153.659 -20.667)" fill="#d19050"/>
  <path id="XMLID_58_" d="M192.962,39.13a.954.954,0,0,0-.93-.93h-43.6a.93.93,0,0,0,0,1.861h4.838V52.589a.954.954,0,0,0,.93.93h31.879a.954.954,0,0,0,.93-.93V40.061h4.838A1.007,1.007,0,0,0,192.962,39.13Z" transform="translate(-135.771 -24.617)" fill="#d19050"/>
</svg>
