
<svg xmlns="http://www.w3.org/2000/svg" width="auto" height="25" viewBox="0 0 49.014 37.638">
  <path id="XMLID_34_" d="M977.99,21.433a4.022,4.022,0,1,1-4.022-4.022A4,4,0,0,1,977.99,21.433Zm9.251.8a4.137,4.137,0,1,1,4.137,4.137A4.12,4.12,0,0,1,987.241,22.238Zm17.526-.8a4.022,4.022,0,1,1,4.022,4.022A4,4,0,0,1,1004.767,21.433ZM966.9,27.7a1.962,1.962,0,0,1,.057-.575v.115a3.943,3.943,0,0,1,3.16-2.988,4.6,4.6,0,0,0,3.793,2.011,4.823,4.823,0,0,0,2.528-.747c2.988,1.609,5.286,4.482,5.286,6.608v2.356c.173.057.4.057.575.115V31.259c0-2.3,2.7-4.252,6.378-4.884a4.455,4.455,0,0,0,2.7.862,4.723,4.723,0,0,0,2.7-.862c3.678.632,6.378,2.586,6.378,4.884v3.333c.172,0,.345-.057.575-.057V32.179c0-2.126,2.3-5,5.286-6.608a4.671,4.671,0,0,0,2.529.747,4.6,4.6,0,0,0,3.792-2.011,4.236,4.236,0,0,1,3.16,3.1c0-.115.057-.172.057-.287a1.763,1.763,0,0,1,.058.575v1.264c0,4.769-10.975,8.677-24.479,8.677s-24.478-3.907-24.478-8.677v-.172A6.622,6.622,0,0,1,966.9,27.7ZM1002.124,3.16a3.151,3.151,0,0,1-3.16,3.16A3.116,3.116,0,0,1,995.8,3.16a3.16,3.16,0,0,1,6.321,0Zm-19.25,9.826v1.322c-6.551.862-11.837,2.586-14.48,4.884V16.262c0-2.011,1.379-3.907,4.654-5.172.23-.057.46-.115.632-.172a4.314,4.314,0,0,0,2.126.517,4.592,4.592,0,0,0,3.1-1.264C981.265,10.343,982.874,11.377,982.874,12.986Zm.8.057c0-1.954,2.241-3.563,5.344-4.137a4.449,4.449,0,0,0,2.3.632,4.194,4.194,0,0,0,2.356-.69c3.218.517,5.574,2.184,5.574,4.195v1.207a67.272,67.272,0,0,0-7.815-.46c-2.7,0-5.286.172-7.7.4V13.044Zm4.195-7.872a3.505,3.505,0,1,1,3.505,3.505A3.482,3.482,0,0,1,987.873,5.172Zm12.067,7.815c0-1.609,1.609-2.7,3.908-2.873a4.339,4.339,0,0,0,3.1,1.264,4.473,4.473,0,0,0,2.126-.517c.173.057.4.115.632.172,3.275,1.264,4.654,3.16,4.654,5.172v2.988c-2.586-2.3-7.872-4.08-14.48-4.942ZM980.059,6.9a11.34,11.34,0,0,1,1.494-.46,4.005,4.005,0,0,0,2.184.575,4.406,4.406,0,0,0,2.528-.8,8.158,8.158,0,0,1,1.264.287,4.877,4.877,0,0,0,1.207,1.839c-2.528.517-4.769,1.781-5.459,3.563-.632-1.494-2.471-2.126-3.965-2.356a3.933,3.933,0,0,0,.8-2.413A.345.345,0,0,1,980.059,6.9Zm.575-3.735a3.16,3.16,0,1,1,3.161,3.16A3.227,3.227,0,0,1,980.633,3.16ZM1002.756,6.9v.23a3.934,3.934,0,0,0,.8,2.413c-1.551.23-3.39.8-3.965,2.356-.689-1.781-2.93-3.1-5.459-3.563a3.7,3.7,0,0,0,1.207-1.839,8.157,8.157,0,0,1,1.264-.287,4.151,4.151,0,0,0,2.528.8,4.571,4.571,0,0,0,2.183-.575A13.88,13.88,0,0,1,1002.756,6.9Zm-23.272.23a3.505,3.505,0,1,1-3.505-3.505A3.519,3.519,0,0,1,979.484,7.125Zm23.846,0a3.505,3.505,0,1,1,3.505,3.505A3.483,3.483,0,0,1,1003.33,7.125Z" transform="translate(-966.9)" fill="#d19050"/>
</svg>
