<svg id="noun_shampoo_204307" xmlns="http://www.w3.org/2000/svg" width="auto" height="25" viewBox="0 0 25.898 49.05">
  <g id="Group_615" data-name="Group 615" transform="translate(0 0)">
    <path id="Path_193" data-name="Path 193" d="M53.765,6.849A28.369,28.369,0,0,0,45.717,5H40.768a1.409,1.409,0,0,0-1.414,1.088.2.2,0,0,1-.054.163V8.589h6.689A2.005,2.005,0,0,1,48.545,7.23c1.577.326,3.643.924,4.677,1.2a.735.735,0,0,0,.87-.381l.109-.218A.783.783,0,0,0,53.765,6.849Z" transform="translate(-32.176 -5)" fill="#d19050"/>
    <path id="Path_194" data-name="Path 194" d="M46.32,15.377A1.578,1.578,0,0,0,44.743,13.8H39.577A1.578,1.578,0,0,0,38,15.377v3.208h8.32Z" transform="translate(-31.583 -9.015)" fill="#d19050"/>
    <path id="Path_195" data-name="Path 195" d="M70.833,18.8a8.532,8.532,0,0,0-3.045-5,10.213,10.213,0,0,1,0,5c-.653,3.045,1.251,3.426,2.121,3.208C70.724,21.794,71.323,20.978,70.833,18.8Z" transform="translate(-45.112 -9.015)" fill="#d19050"/>
    <path id="Path_196" data-name="Path 196" d="M45.316,38.823a.762.762,0,0,0-.054-1.523h-.054a.817.817,0,0,0-.707.816A.716.716,0,0,0,45.316,38.823Z" transform="translate(-34.549 -19.736)" fill="#d19050"/>
    <path id="Path_197" data-name="Path 197" d="M38.316,48.623a.755.755,0,0,0,.544-.272.714.714,0,0,0,.163-.544.812.812,0,0,0-.761-.707h-.054a.817.817,0,0,0-.707.816A.716.716,0,0,0,38.316,48.623Z" transform="translate(-31.355 -24.207)" fill="#d19050"/>
    <path id="Path_198" data-name="Path 198" d="M51.169,52.582a1.335,1.335,0,0,0,.924-.6,1.531,1.531,0,0,0,.218-1.088A1.458,1.458,0,0,0,50.9,49.7h-.272a1.335,1.335,0,0,0-.924.6,1.531,1.531,0,0,0-.218,1.088A1.458,1.458,0,0,0,51.169,52.582Z" transform="translate(-36.813 -25.393)" fill="#d19050"/>
    <path id="Path_199" data-name="Path 199" d="M42.623,25.824c-.054,0-.054-.054-.109-.054a5.211,5.211,0,0,0-2.991-.87H33.759a7.37,7.37,0,0,0-1.088.109,7.438,7.438,0,0,0-4.622,3.317A10.528,10.528,0,0,0,26.2,34.362V58.4a4.016,4.016,0,0,0,2.991,3.915,29.232,29.232,0,0,0,7.613.816,29.087,29.087,0,0,0,7.668-.816,3.965,3.965,0,0,0,2.882-3.861V34.743A10.681,10.681,0,0,0,42.623,25.824ZM39.849,37.516c.163,0,.272-.054.435-.054a2.386,2.386,0,0,1,2.338,1.958,2.367,2.367,0,0,1-1.9,2.773c-.163,0-.272.054-.435.054a2.386,2.386,0,0,1-2.338-1.958A2.423,2.423,0,0,1,39.849,37.516Zm-3.1-6.8A1.647,1.647,0,0,1,38.6,32.3a1.675,1.675,0,0,1-1.577,1.849h-.163a1.716,1.716,0,0,1-.109-3.426Zm-3.807,5.329a1.647,1.647,0,0,1,1.849,1.577,1.722,1.722,0,0,1-.381,1.251,1.809,1.809,0,0,1-1.142.6h-.163A1.672,1.672,0,0,1,31.42,37.9,1.627,1.627,0,0,1,32.943,36.048ZM45.885,47.141v.381s.109,6.906,0,8.972v1.142a3.363,3.363,0,0,1-1.849,3.045,5.931,5.931,0,0,1-2.828.87c-1.033.054-2.665.163-4.459.163a21.343,21.343,0,0,1-4.731-.381,8.609,8.609,0,0,1-1.686-.489c-1.577-.6-2.665-1.577-2.665-3.263V43.987a.932.932,0,0,1,.6-.87,11.042,11.042,0,0,1,3.317-.761c3.045-.163,4.677,1.2,6.145,2.338,1.359,1.142,2.556,2.066,4.84,1.958a7.782,7.782,0,0,0,2.121-.381A.935.935,0,0,1,45.885,47.141Z" transform="translate(-26.2 -14.079)" fill="#d19050"/>
  </g>
</svg>
