<svg xmlns="http://www.w3.org/2000/svg" width="auto" height="90" viewBox="0 0 157.394 131.071">
  <g id="Group_962" data-name="Group 962" transform="translate(-1270.831 -5831.455)">
    <g id="Group_963" data-name="Group 963" transform="translate(1270.831 5831.455)">
      <path id="Path_24" data-name="Path 24" d="M56.123,84.977,34.76,63.614l7.4-7.4L56.123,70.176,87.539,38.76l7.4,7.4Z" transform="translate(17.338 -6.005)" fill="#d19050"/>
      <path id="Path_25" data-name="Path 25" d="M133.017,89.68a52.36,52.36,0,1,0-98.82,0L4.91,118.967l27.279,4.817,4.817,27.28,29.287-29.287a52.361,52.361,0,0,0,34.627,0l29.287,29.287,4.817-27.28,27.279-4.817Zm-89.2,39.759-2.583-14.7-14.7-2.583L38.979,99.716a52.743,52.743,0,0,0,17.279,17.279ZM41.719,72.366a41.888,41.888,0,1,1,41.888,41.889A42.088,42.088,0,0,1,41.719,72.366Zm84.264,42.377-2.583,14.7-12.444-12.444a52.743,52.743,0,0,0,17.279-17.279l12.444,12.444Z" transform="translate(-4.91 -19.993)" fill="#d19050"/>
    </g>
  </g>
</svg>
