<svg xmlns="http://www.w3.org/2000/svg" width="158.653" height="38.698" viewBox="0 0 158.653 38.698">
  <g id="Group_1237" data-name="Group 1237" transform="translate(0 0.01)">
    <g id="Group_1236" data-name="Group 1236" transform="translate(0 -0.01)">
      <g id="Group_1235" data-name="Group 1235" transform="translate(0 0)">
        <path id="Path_403" data-name="Path 403" d="M4.495.7a8.118,8.118,0,0,0-3.538,1.8A3.083,3.083,0,0,0,0,4.42,3.083,3.083,0,0,0,.957,6.334a8.367,8.367,0,0,0,3.538,1.8,18.866,18.866,0,0,0,6.542.668V.037A18.866,18.866,0,0,0,4.495.7Z" transform="translate(0 0.01)" fill="#894f1a"/>
      </g>
      <path id="Path_404" data-name="Path 404" d="M158.653,24.161H11.037a18.866,18.866,0,0,1-6.542-.668,8.056,8.056,0,0,1-3.538-1.78A3.083,3.083,0,0,1,0,19.8V49.662a3.083,3.083,0,0,0,.957,1.914,8.367,8.367,0,0,0,3.538,1.8,18.851,18.851,0,0,0,6.03.69v.022H158.653L142.988,39.137Z" transform="translate(0 -15.392)" fill="#801c17"/>
    </g>
  </g>
</svg>
