<svg xmlns="http://www.w3.org/2000/svg" width="auto" height="25" viewBox="0 0 31.222 32.617">
  <g id="Group_1677" data-name="Group 1677" transform="translate(-951.41 -2397.492)">
    <path id="Path_493" data-name="Path 493" d="M55,23.159l.631-2.03a4.671,4.671,0,0,0-.65-2.567,3.977,3.977,0,0,0-1.772-1.47,9.045,9.045,0,0,0-2.628-.668,14.574,14.574,0,0,0-3.218.237l-.79.131-.79.263-1.411.395.046-.92.658-3.746c.186-1.582-2.07-5.423-3.839-5.656l-.881-.116c-1.769-.234.117,3.276-.889,6.164l-2.655,6.111a9.333,9.333,0,0,0-.879.912V34.115c1.6.713,4.3,1.588,5.05,1.885a8.718,8.718,0,0,0,3.219.609h3.16a8.461,8.461,0,0,0,3.087-.548,6.66,6.66,0,0,0,2.339-1.526c.643-.652.442-1.438.782-2.329s1.219-1.886,1.219-2.956l-.21-2.03.631-2.03Z" transform="translate(925.496 2392)" fill="none" stroke="#d19050" stroke-width="3"/>
    <path id="Path_494" data-name="Path 494" d="M14.461,39.267V37.055c0-.363-.431-.657-.962-.657H8.373c-.532,0-.963.294-.963.657V55.287c0,.363.431.657.963.657H13.5c.532,0,.962-.294.962-.657V39.267ZM11.029,53.576a1.974,1.974,0,0,1,0-3.942,1.974,1.974,0,0,1,0,3.942Z" transform="translate(944 2372.931)" fill="#d19050"/>
  </g>
</svg>
