<svg xmlns="http://www.w3.org/2000/svg" width="76.676" height="73.46" viewBox="0 0 76.676 73.46">
  <g id="Group_1251" data-name="Group 1251" transform="translate(0 0.05)">
    <g id="Group_1250" data-name="Group 1250" transform="translate(0 -0.05)">
      <path id="Path_408" data-name="Path 408" d="M76.676,36.68c0,3.927-4.327,7.128-5.468,10.685-1.2,3.675.385,8.8-1.852,11.856-2.253,3.1-7.617,3.171-10.714,5.409-3.053,2.223-4.772,7.321-8.462,8.521-3.542,1.156-7.914-1.927-11.856-1.927s-8.3,3.082-11.856,1.927c-3.675-1.2-5.394-6.3-8.462-8.521-3.1-2.253-8.462-2.327-10.714-5.409-2.223-3.053-.652-8.18-1.852-11.856C4.327,43.808,0,40.622,0,36.68S4.327,29.552,5.468,26c1.2-3.675-.385-8.8,1.852-11.856,2.253-3.1,7.617-3.171,10.714-5.409C21.088,6.508,22.807,1.41,26.5.209c3.542-1.156,7.914,1.927,11.856,1.927S46.652-.947,50.208.209c3.675,1.2,5.394,6.3,8.462,8.521,3.1,2.253,8.462,2.327,10.714,5.409,2.223,3.053.652,8.18,1.852,11.856C72.349,29.552,76.676,32.753,76.676,36.68Z" transform="translate(0 0.05)" fill="#801c17"/>
    </g>
    <path id="Path_409" data-name="Path 409" d="M72.636,93.669a14.834,14.834,0,0,1-3.675-.874,21.378,21.378,0,0,0-6.446-1.3,21.472,21.472,0,0,0-6.446,1.3,14.834,14.834,0,0,1-3.675.874,1.659,1.659,0,0,1-.43-.044c-.845-.267-1.971-1.823-2.979-3.2a20.637,20.637,0,0,0-4.3-4.713,20.827,20.827,0,0,0-5.854-2.667c-1.867-.622-3.453-1.186-3.927-1.823-.445-.622-.5-2.282-.5-4.238a21.346,21.346,0,0,0-.726-6.432,20.04,20.04,0,0,0-3.127-5.468c-1.008-1.393-2.149-2.964-2.149-3.9s1.141-2.5,2.149-3.9a20.492,20.492,0,0,0,3.127-5.468,20.912,20.912,0,0,0,.741-6.432c.015-1.956.059-3.616.5-4.238s2.045-1.2,3.912-1.823A20.72,20.72,0,0,0,44.7,36.658,20.948,20.948,0,0,0,49,31.946c1.008-1.378,2.134-2.919,2.979-3.2a1.659,1.659,0,0,1,.43-.044,14.834,14.834,0,0,1,3.675.874,21.378,21.378,0,0,0,6.446,1.3,21.472,21.472,0,0,0,6.446-1.3,14.834,14.834,0,0,1,3.675-.874,2.229,2.229,0,0,1,.43.044c.845.267,1.986,1.823,2.979,3.2a20.948,20.948,0,0,0,4.3,4.713,20.827,20.827,0,0,0,5.854,2.668c1.867.622,3.453,1.186,3.927,1.823.445.622.5,2.282.5,4.238a21.346,21.346,0,0,0,.726,6.432,19.665,19.665,0,0,0,3.127,5.468c1.008,1.393,2.149,2.964,2.149,3.9s-1.141,2.5-2.149,3.9a20.264,20.264,0,0,0-3.127,5.468,20.441,20.441,0,0,0-.726,6.432c-.015,1.956-.059,3.616-.5,4.238s-2.045,1.2-3.912,1.823a20.72,20.72,0,0,0-5.869,2.667,20.949,20.949,0,0,0-4.3,4.713c-1.008,1.378-2.134,2.919-2.979,3.2A1.871,1.871,0,0,1,72.636,93.669ZM62.529,90.927a21.814,21.814,0,0,1,6.609,1.334,14.8,14.8,0,0,0,3.5.845c.178,0,.237-.015.252-.03.667-.222,1.838-1.823,2.7-2.994A21.04,21.04,0,0,1,80,85.236a21.333,21.333,0,0,1,6.017-2.742c1.289-.43,3.245-1.067,3.646-1.615.385-.519.4-2.638.4-3.912a21.7,21.7,0,0,1,.756-6.609,20.526,20.526,0,0,1,3.2-5.631c.86-1.186,2.03-2.816,2.03-3.571s-1.171-2.386-2.03-3.571a20.747,20.747,0,0,1-3.2-5.631,21.657,21.657,0,0,1-.756-6.595c-.015-1.274-.015-3.394-.4-3.912-.4-.548-2.43-1.215-3.646-1.615A21.521,21.521,0,0,1,80,37.088a20.743,20.743,0,0,1-4.416-4.846c-.86-1.171-2.03-2.786-2.7-2.994a.734.734,0,0,0-.252-.03,14.633,14.633,0,0,0-3.5.845A21.815,21.815,0,0,1,62.529,31.4a21.815,21.815,0,0,1-6.609-1.334,14.8,14.8,0,0,0-3.5-.845c-.178,0-.237.015-.252.03-.667.222-1.838,1.823-2.7,2.994a20.686,20.686,0,0,1-4.416,4.831,21.333,21.333,0,0,1-6.017,2.742c-1.215.4-3.245,1.067-3.646,1.615-.385.519-.4,2.653-.4,3.912a21.8,21.8,0,0,1-.756,6.609,20.747,20.747,0,0,1-3.2,5.631c-.86,1.186-2.045,2.816-2.045,3.571s1.171,2.386,2.03,3.571a20.526,20.526,0,0,1,3.2,5.631,21.657,21.657,0,0,1,.756,6.595c.015,1.274.015,3.394.4,3.912.4.548,2.43,1.215,3.646,1.615a21.333,21.333,0,0,1,6.017,2.742,20.983,20.983,0,0,1,4.416,4.831c.86,1.171,2.03,2.786,2.7,2.994a.733.733,0,0,0,.252.03,14.633,14.633,0,0,0,3.5-.845A22.378,22.378,0,0,1,62.529,90.927Z" transform="translate(-24.191 -24.49)" fill="#fff"/>
  </g>
</svg>
