<svg id="Group_1623" data-name="Group 1623" xmlns="http://www.w3.org/2000/svg" width="65" height="65" viewBox="0 0 98.687 98.687">
  <g id="Group_1621" data-name="Group 1621" transform="translate(0)">
    <rect id="Rectangle_485" data-name="Rectangle 485" width="98.687" height="98.687" transform="translate(0)" fill="none"/>
    <path id="Path_506" data-name="Path 506" d="M17.438,19S14.6,53.075,13.369,67.831a6.17,6.17,0,0,0,6.146,6.68H64.7a6.17,6.17,0,0,0,6.146-6.68C69.621,53.075,66.781,19,66.781,19ZM29,25.168a2.313,2.313,0,1,1-2.313,2.313A2.314,2.314,0,0,1,29,25.168Zm26.214,0a2.313,2.313,0,1,1,0,4.626C53.94,29.794,53.94,25.168,55.216,25.168Z" transform="translate(7.234 10.298)" fill="#d19050" fill-rule="evenodd"/>
    <path id="Path_507" data-name="Path 507" d="M26.2,24.978a11.834,11.834,0,0,1-.071-1.288,11.565,11.565,0,0,1,23.13,0,11.833,11.833,0,0,1-.071,1.288,2.313,2.313,0,1,0,4.6.509,16.438,16.438,0,0,0,.1-1.8,16.191,16.191,0,0,0-32.382,0,16.439,16.439,0,0,0,.1,1.8,2.313,2.313,0,0,0,4.6-.509Z" transform="translate(11.653 4.065)" fill="#d19050" fill-rule="evenodd"/>
    <circle id="Ellipse_51" data-name="Ellipse 51" cx="2.586" cy="2.586" r="2.586" transform="translate(33.516 35.171)" fill="#fff"/>
    <circle id="Ellipse_52" data-name="Ellipse 52" cx="2.586" cy="2.586" r="2.586" transform="translate(60.412 35.171)" fill="#fff"/>
  </g>
  <g id="Group_1622" data-name="Group 1622" transform="translate(37.964 44.964)">
    <path id="Path_508" data-name="Path 508" d="M61.459,10.6c0-3.841-2.828-8.1-5.412-8.1S50.6,6.76,50.6,10.6c0,3.073,1.536,4.923,3.7,5.587l-.279,17.459a2,2,0,0,0,1.99,2.025A1.975,1.975,0,0,0,58,33.646l-.279-17.459C59.923,15.559,61.459,13.674,61.459,10.6Z" transform="translate(-39.322 -2.5)" fill="#fff"/>
    <path id="Path_509" data-name="Path 509" d="M26.087,4.935a.864.864,0,0,0-.873.873v7.263a.388.388,0,0,1-.384.384h-.943a.387.387,0,0,1-.384-.384v-7.3a.906.906,0,0,0-.873-.838.864.864,0,0,0-.873.873v7.263a.387.387,0,0,1-.384.384H20.43a.387.387,0,0,1-.384-.384v-7.3a.873.873,0,1,0-1.746,0v8.834a2.88,2.88,0,0,0,2.584,2.863l-.279,17.7a2,2,0,0,0,1.99,2.025,1.975,1.975,0,0,0,1.99-2.025l-.244-17.668a2.878,2.878,0,0,0,2.584-2.863V5.773A.85.85,0,0,0,26.087,4.935Z" transform="translate(-18.3 -4.062)" fill="#fff"/>
  </g>
</svg>
