<svg xmlns="http://www.w3.org/2000/svg" width="auto" height="25" viewBox="0 0 19.152 35.125">
  <g id="Group_1676" data-name="Group 1676" transform="translate(-24.1 37.625) rotate(-90)">
    <path id="Path_491" data-name="Path 491" d="M22.534,39.426a1.128,1.128,0,0,0,.776.333,1.064,1.064,0,0,0,.776-.333,1.116,1.116,0,0,0,0-1.59l-1.479-1.479H38.063l-1.479,1.479a1.124,1.124,0,1,0,1.59,1.59l3.4-3.4a1.116,1.116,0,0,0,0-1.59l-3.4-3.4A1.127,1.127,0,0,0,37.4,30.7a1.064,1.064,0,0,0-.776.333,1.116,1.116,0,0,0,0,1.59L38.1,34.1H22.645l1.479-1.479a1.124,1.124,0,1,0-1.59-1.59l-3.4,3.4a1.116,1.116,0,0,0,0,1.59Z" transform="translate(-10.273 -4.16)" fill="#d19050"/>
    <path id="Path_492" data-name="Path 492" d="M37.145,24.1H35.85a.489.489,0,0,0-.481.481V41H32.116V37a.489.489,0,0,0-.481-.481H30.341a.489.489,0,0,0-.481.481V41H26.607v-2.4a.489.489,0,0,0-.481-.481H24.832a.489.489,0,0,0-.481.481V41h-3.18v-2.4a.489.489,0,0,0-.481-.481H19.4a.489.489,0,0,0-.481.481V41H15.663v-2.4a.489.489,0,0,0-.481-.481H13.888a.489.489,0,0,0-.481.481V41H10.154V37a.489.489,0,0,0-.481-.481H8.379A.489.489,0,0,0,7.9,37V41H4.718V24.581a.489.489,0,0,0-.481-.481H2.981a.489.489,0,0,0-.481.481V42.772a.489.489,0,0,0,.481.481H37.145a.489.489,0,0,0,.481-.481V24.581A.489.489,0,0,0,37.145,24.1Z" transform="translate(0 0)" fill="#d19050"/>
  </g>
</svg>
