<svg id="noun_Share_1265002" xmlns="http://www.w3.org/2000/svg" width="auto" height="25" viewBox="0 0 47.21 47.211">
  <g id="Group_924" data-name="Group 924" transform="translate(0 0)">
    <g id="Group_923" data-name="Group 923">
      <path id="Path_297" data-name="Path 297" d="M35.209,27H66a8.213,8.213,0,0,1,8.209,8.216V65.995a8.213,8.213,0,0,1-8.216,8.216H35.216A8.213,8.213,0,0,1,27,65.995V35.216A8.209,8.209,0,0,1,35.209,27ZM62.056,41.731A2.985,2.985,0,0,0,59,38.7l-14.619.217c-4.1.006-4.108,6.156-.009,6.15l5-.016c1.138,0,1.4.65.6,1.45L40,56.483a3.07,3.07,0,1,0,4.342,4.342l9.983-9.983c.8-.8,1.454-.534,1.45.6l-.017,5c-.005,4.1,6.144,4.09,6.15-.009Z" transform="translate(-27 -27)" fill="#d19050" fill-rule="evenodd"/>
    </g>
  </g>
</svg>
