<svg id="noun_shortlist_2642560" xmlns="http://www.w3.org/2000/svg" width="auto" height="25" viewBox="0 0 48.688 47.211">
  <path id="Path_298" data-name="Path 298" d="M3.739,52.211A1.975,1.975,0,0,1,2,50.065V7.146A1.975,1.975,0,0,1,3.739,5h45.21a1.975,1.975,0,0,1,1.739,2.146V50.065a1.975,1.975,0,0,1-1.739,2.146ZM27.361,19.97a.987.987,0,0,0,.869-1.073V16.708a.987.987,0,0,0-.869-1.073h-15.8a.987.987,0,0,0-.869,1.073V18.9a.987.987,0,0,0,.869,1.073Zm0,8.584a.987.987,0,0,0,.869-1.073V25.292a.987.987,0,0,0-.869-1.073h-15.8a.987.987,0,0,0-.869,1.073v2.189a.987.987,0,0,0,.869,1.073ZM43.388,18.275a.877.877,0,0,0-1.415.12L29.486,36.071,25.021,33.06a.908.908,0,0,0-1.284.3,1.518,1.518,0,0,0-.024,1.613l4.744,7.365a2.008,2.008,0,0,0,1.789,1,2.113,2.113,0,0,0,1.7-1.211l.156-.3L43.573,19.88A1.451,1.451,0,0,0,43.388,18.275Z" transform="translate(-2 -5)" fill="#d19050"/>
</svg>
