<svg xmlns="http://www.w3.org/2000/svg" width="auto" height="65" viewBox="0 0 327.059 98.086">
  <g id="Group_96" data-name="Group 96" transform="translate(-0.711 -318.737)">
    <g id="Group_95" data-name="Group 95" transform="translate(13.271 359.015)">
      <path id="XMLID_44_" d="M143.861,13.476a32.47,32.47,0,0,1-5.285,1.652c.991,0,1.982-1.652,2.643-2.312a10.333,10.333,0,0,0,1.652-3.3v-.33h-.33a20.449,20.449,0,0,1-6.276,2.312h-.33l-.661-.661L132.3,8.851a7.265,7.265,0,0,0-4.625-.661,9.368,9.368,0,0,0-4.294,1.321,10.5,10.5,0,0,0-5.616,7.267,10.914,10.914,0,0,0,0,4.625c0,.33,0,.33-.33.33-8.589-1.321-15.856-4.294-21.8-10.9-.33-.33-.33-.33-.661,0-2.643,3.964-1.321,9.91,1.982,12.883.33.33.991.661,1.321,1.321a13.267,13.267,0,0,1-4.294-1.321c-.33,0-.33,0-.33.33v1.321a10.854,10.854,0,0,0,6.937,8.919,1.986,1.986,0,0,0,1.321.33c-.991.33-1.652.33-3.964,0-.33,0-.33,0-.33.33,1.652,4.955,5.616,6.276,8.589,7.267h1.321c-.991,1.321-4.294,2.643-5.946,2.973a20.683,20.683,0,0,1-8.919.991H92v.33l1.982.991a22.131,22.131,0,0,0,5.946,2.312c10.9,2.973,22.793.661,31.051-7.267,6.276-6.276,8.589-14.865,8.589-23.784a.71.71,0,0,1,.661-.661,26.4,26.4,0,0,0,4.294-4.294c-.661.33-.661,0-.661-.33Z" transform="translate(72.073 -0.593)" fill="#fff"/>
      <g id="XMLID_36_" transform="translate(69.059 1.652)">
        <ellipse id="XMLID_43_" cx="3.303" cy="3.303" rx="3.303" ry="3.303" transform="translate(39.639 9.579)" fill="#fff"/>
        <path id="XMLID_40_" d="M66.874,10.5A13.874,13.874,0,1,0,80.748,24.374,13.957,13.957,0,0,0,66.874,10.5Zm0,22.793a8.919,8.919,0,1,1,8.919-8.919A8.882,8.882,0,0,1,66.874,33.293Z" transform="translate(-38.466 3.374)" fill="#fff"/>
        <path id="XMLID_37_" d="M87.909,62.456H65.447A16.918,16.918,0,0,1,48.6,45.609V23.147A16.918,16.918,0,0,1,65.447,6.3H87.909a16.918,16.918,0,0,1,16.847,16.847V45.609C105.086,54.858,97.488,62.456,87.909,62.456Zm-22.462-51.2A11.49,11.49,0,0,0,53.885,22.816V45.279A11.49,11.49,0,0,0,65.447,56.84H87.909A11.49,11.49,0,0,0,99.47,45.279V22.816A11.49,11.49,0,0,0,87.909,11.255Z" transform="translate(-48.6 -6.3)" fill="#fff"/>
      </g>
      <g id="XMLID_33_" transform="translate(0 0)">
        <path id="XMLID_34_" d="M37.38,38.024l1.476-10.331H28.771V21.051c0-2.952,1.476-5.658,5.9-5.658H39.1V6.538A54.154,54.154,0,0,0,30.985,5.8c-8.118,0-13.529,4.92-13.529,14.021v7.872H8.6V38.024h9.1V63.115a40.374,40.374,0,0,0,5.658.492,43.914,43.914,0,0,0,5.658-.492V38.024Z" transform="translate(-8.6 -5.8)" fill="#fff"/>
      </g>
      <g id="Group_94" data-name="Group 94" transform="translate(255.812 5.285)">
        <path id="XMLID_29_" d="M136.361,22.265h9.249v30.06h-9.249ZM140.985,7.4a5.218,5.218,0,0,1,5.285,5.285,5.285,5.285,0,0,1-10.571,0A5.218,5.218,0,0,1,140.985,7.4" transform="translate(-135.7 -7.4)" fill="#fff"/>
        <path id="XMLID_28_" d="M140.5,12.591h8.919v3.964h0a10.111,10.111,0,0,1,8.919-4.955c9.579,0,11.231,6.276,11.231,14.2V42.32H160.32V27.786c0-3.634,0-7.928-4.955-7.928s-5.616,3.634-5.616,7.6v15.2H140.5V12.591Z" transform="translate(-124.644 2.274)" fill="#fff"/>
      </g>
    </g>
    <line id="Line_10" data-name="Line 10" x2="327.059" transform="translate(0.711 319.238)" fill="none" stroke="#fff" stroke-width="1"/>
  </g>
</svg>
