<svg id="Group_1116" data-name="Group 1116" xmlns="http://www.w3.org/2000/svg" width="auto" height="80" viewBox="0 0 137.959 154.514">
  <path id="Path_366" data-name="Path 366" d="M339.037,95.705,330.725,85.6,328,89.98v26.8h11.037Z" transform="translate(-214.874 -56.077)" fill="#d19050"/>
  <path id="Path_367" data-name="Path 367" d="M334.073,214.073V192H312v20c.241.69.483,1.38.69,2.069Z" transform="translate(-204.392 -125.78)" fill="#801c17"/>
  <path id="Path_368" data-name="Path 368" d="M72.277,242.286h7.208a35.858,35.858,0,1,1,51.769.035H138.5a40.813,40.813,0,0,0,8.278-24.833A41.388,41.388,0,0,0,64,217.453,40.813,40.813,0,0,0,72.277,242.286Z" transform="translate(-41.926 -115.364)" fill="#801c17"/>
  <path id="Path_369" data-name="Path 369" d="M318.624,280.278c0,.931-.034,1.828-.069,2.759h24.9V272H317.9A47.639,47.639,0,0,1,318.624,280.278Z" transform="translate(-208.257 -178.188)" fill="#801c17"/>
  <path id="Path_370" data-name="Path 370" d="M156.7,238.351a30.351,30.351,0,1,0-47.8,24.833h34.9A30.294,30.294,0,0,0,156.7,238.351Z" transform="translate(-62.89 -136.261)" fill="#d19050"/>
  <path id="Path_371" data-name="Path 371" d="M27.592,8.071A8.306,8.306,0,0,0,19.314,0H8.278A8.283,8.283,0,0,0,0,8.071L5.1,38.629H22.487Z" fill="#d19050"/>
  <rect id="Rectangle_347" data-name="Rectangle 347" width="22.073" height="5.518" transform="translate(52.424 132.441)" fill="#801c17"/>
  <rect id="Rectangle_348" data-name="Rectangle 348" width="16.555" height="33.11" transform="translate(5.518 44.147)" fill="#801c17"/>
  <path id="Path_372" data-name="Path 372" d="M27.037,286.906a2.767,2.767,0,0,1,2.759-2.759h2.759v-2.759A46.817,46.817,0,0,1,31.21,240H16v68.979a2.767,2.767,0,0,0,2.759,2.759H29.8a13.728,13.728,0,0,1-2.759-8.278Z" transform="translate(-10.482 -157.225)" fill="#801c17"/>
  <path id="Path_373" data-name="Path 373" d="M299.4,336.555h4.346a2.767,2.767,0,0,1,2.759,2.759v16.555a13.728,13.728,0,0,1-2.759,8.278H334.1V320H305.746A47.023,47.023,0,0,1,299.4,336.555Z" transform="translate(-196.138 -209.633)" fill="#801c17"/>
  <path id="Path_374" data-name="Path 374" d="M121.943,392.278a2.767,2.767,0,0,1-2.759,2.759H91.592a2.767,2.767,0,0,1-2.759-2.759V384H64v13.8a8.3,8.3,0,0,0,8.278,8.278H138.5a8.3,8.3,0,0,0,8.278-8.278V384H121.943Z" transform="translate(-41.927 -251.559)" fill="#801c17"/>
</svg>
