<svg id="XMLID_225_" xmlns="http://www.w3.org/2000/svg" width="auto" height="25" viewBox="0 0 57.667 53.288">
  <ellipse id="XMLID_296_" cx="3.844" cy="3.844" rx="3.844" ry="3.844" fill="#660500"/>
  <ellipse id="XMLID_295_" cx="3.844" cy="3.844" rx="3.844" ry="3.844" transform="translate(12.494)" fill="#660500"/>
  <ellipse id="XMLID_294_" cx="3.844" cy="3.844" rx="3.844" ry="3.844" transform="translate(24.989)" fill="#660500"/>
  <ellipse id="XMLID_293_" cx="3.844" cy="3.844" rx="3.844" ry="3.844" transform="translate(37.483)" fill="#660500"/>
  <ellipse id="XMLID_292_" cx="3.844" cy="3.844" rx="3.844" ry="3.844" transform="translate(49.978)" fill="#660500"/>
  <ellipse id="XMLID_291_" cx="3.844" cy="3.844" rx="3.844" ry="3.844" transform="translate(0 11.427)" fill="#660500"/>
  <ellipse id="XMLID_290_" cx="3.844" cy="3.844" rx="3.844" ry="3.844" transform="translate(12.494 11.427)" fill="#660500"/>
  <ellipse id="XMLID_289_" cx="3.844" cy="3.844" rx="3.844" ry="3.844" transform="translate(24.989 11.427)" fill="#660500"/>
  <ellipse id="XMLID_288_" cx="3.844" cy="3.844" rx="3.844" ry="3.844" transform="translate(37.483 11.427)" fill="#660500"/>
  <ellipse id="XMLID_287_" cx="3.844" cy="3.844" rx="3.844" ry="3.844" transform="translate(49.978 11.427)" fill="#660500"/>
  <ellipse id="XMLID_286_" cx="3.844" cy="3.844" rx="3.844" ry="3.844" transform="translate(0 22.853)" fill="#660500"/>
  <ellipse id="XMLID_285_" cx="3.844" cy="3.844" rx="3.844" ry="3.844" transform="translate(12.494 22.853)" fill="#660500"/>
  <ellipse id="XMLID_284_" cx="3.844" cy="3.844" rx="3.844" ry="3.844" transform="translate(24.989 22.853)" fill="#660500"/>
  <ellipse id="XMLID_283_" cx="3.844" cy="3.844" rx="3.844" ry="3.844" transform="translate(37.483 22.853)" fill="#660500"/>
  <ellipse id="XMLID_282_" cx="3.844" cy="3.844" rx="3.844" ry="3.844" transform="translate(49.978 22.853)" fill="#660500"/>
  <ellipse id="XMLID_281_" cx="3.844" cy="3.844" rx="3.844" ry="3.844" transform="translate(0 34.173)" fill="#660500"/>
  <ellipse id="XMLID_280_" cx="3.844" cy="3.844" rx="3.844" ry="3.844" transform="translate(12.494 34.173)" fill="#660500"/>
  <ellipse id="XMLID_279_" cx="3.844" cy="3.844" rx="3.844" ry="3.844" transform="translate(24.989 34.173)" fill="#660500"/>
  <ellipse id="XMLID_278_" cx="3.844" cy="3.844" rx="3.844" ry="3.844" transform="translate(37.483 34.173)" fill="#660500"/>
  <ellipse id="XMLID_277_" cx="3.844" cy="3.844" rx="3.844" ry="3.844" transform="translate(49.978 34.173)" fill="#660500"/>
  <ellipse id="XMLID_276_" cx="3.844" cy="3.844" rx="3.844" ry="3.844" transform="translate(0 45.599)" fill="#660500"/>
  <ellipse id="XMLID_239_" cx="3.844" cy="3.844" rx="3.844" ry="3.844" transform="translate(12.494 45.599)" fill="#660500"/>
  <ellipse id="XMLID_238_" cx="3.844" cy="3.844" rx="3.844" ry="3.844" transform="translate(24.989 45.599)" fill="#660500"/>
  <ellipse id="XMLID_227_" cx="3.844" cy="3.844" rx="3.844" ry="3.844" transform="translate(37.483 45.599)" fill="#660500"/>
  <ellipse id="XMLID_226_" cx="3.844" cy="3.844" rx="3.844" ry="3.844" transform="translate(49.978 45.599)" fill="#660500"/>
</svg>
