<svg id="Group_1242" data-name="Group 1242" xmlns="http://www.w3.org/2000/svg" width="24.287" height="24.208" viewBox="0 0 24.287 24.208">
  <path id="Path_406" data-name="Path 406" d="M9.052,0c1.009,0,1.412.2,1.614.605a1.929,1.929,0,0,1,.4,1.412v8.069h8.069a2.291,2.291,0,0,1,1.614.605c.4.4.605.807.4,1.21l-2.017,8.069c-.2.605-.4,1.412-.807,1.614a1.438,1.438,0,0,1-1.21.605H5.017A1.906,1.906,0,0,1,3,20.173V9.885A7.008,7.008,0,0,0,9.052,2.824Z" transform="translate(3.052)" fill="#fff"/>
  <path id="Path_407" data-name="Path 407" d="M0,4H4.035V20.139H0Z" transform="translate(0 4.069)" fill="#fff"/>
</svg>
