<svg id="Group_616" data-name="Group 616" xmlns="http://www.w3.org/2000/svg" width="auto" height="15" viewBox="0 0 70.342 36.76">
  <path id="Path_204" data-name="Path 204" d="M22.807,55.485a12.132,12.132,0,0,1,1.482-4.447,8.773,8.773,0,0,0-4.447-2.594l-3.483,8.6-.741-6.226h.519a.529.529,0,0,0,.519-.593V48.593A.573.573,0,0,0,16.136,48H13.394a.585.585,0,0,0-.593.593v1.631a.585.585,0,0,0,.593.593h.519l-.741,6.226-3.483-8.6a8.614,8.614,0,0,0-6.6,7.411L2.5,64.972a2.77,2.77,0,0,0,2.742,2.89H23.029a6.349,6.349,0,0,1-.741-3.039l.519-9.116v-.222Z" transform="translate(-2.496 -31.102)" fill="#d19050"/>
  <ellipse id="Ellipse_16" data-name="Ellipse 16" cx="7.708" cy="7.708" rx="7.708" ry="7.708" transform="translate(4.524 0)" fill="#d19050"/>
  <path id="Path_205" data-name="Path 205" d="M89.371,55.856a8.691,8.691,0,0,0-6.67-7.411l-3.483,8.6-.741-6.226h.519a.529.529,0,0,0,.519-.593V48.593A.573.573,0,0,0,78.995,48H76.253a.529.529,0,0,0-.519.593v1.631a.573.573,0,0,0,.519.593h.519l-.741,6.226-3.483-8.6A9.33,9.33,0,0,0,68.1,51.039a12.6,12.6,0,0,1,1.482,4.447v.148L70.1,64.75a5.45,5.45,0,0,1-.741,3.039H87.074a2.77,2.77,0,0,0,2.742-2.89Z" transform="translate(-19.477 -31.102)" fill="#d19050"/>
  <ellipse id="Ellipse_17" data-name="Ellipse 17" cx="7.708" cy="7.708" rx="7.708" ry="7.708" transform="translate(50.476 0)" fill="#d19050"/>
  <path id="Path_206" data-name="Path 206" d="M50.842,48.5l-3.483,8.671-.741-6.226h.519a.507.507,0,0,0,.519-.519v-1.7a.507.507,0,0,0-.519-.519H44.394a.507.507,0,0,0-.519.519v1.7a.507.507,0,0,0,.519.519h.519l-.741,6.226L40.688,48.5a8.691,8.691,0,0,0-6.67,7.411L33.5,65.024a2.77,2.77,0,0,0,2.742,2.89H55.215a2.77,2.77,0,0,0,2.742-2.89l-.519-9.116A8.614,8.614,0,0,0,50.842,48.5Z" transform="translate(-10.52 -31.154)" fill="#d19050"/>
  <ellipse id="Ellipse_18" data-name="Ellipse 18" cx="7.708" cy="7.708" rx="7.708" ry="7.708" transform="translate(27.5 0)" fill="#d19050"/>
</svg>
