<svg id="XMLID_94_" xmlns="http://www.w3.org/2000/svg" width="auto" height="25" viewBox="0 0 29.055 61.68">
  <path id="XMLID_180_" d="M168.649,56.463h0a9.878,9.878,0,0,1-9.849-9.849V10.049A9.878,9.878,0,0,1,168.649.2h0a9.878,9.878,0,0,1,9.849,9.849V46.614A9.878,9.878,0,0,1,168.649,56.463Z" transform="translate(-154.122 -0.2)" fill="#660500"/>
  <g id="XMLID_123_" transform="translate(0 11.449)">
    <g id="XMLID_178_" transform="translate(0.616)">
      <path id="XMLID_179_" d="M155.5,9.5" transform="translate(-155.5 -9.5)" fill="#660500"/>
    </g>
    <g id="XMLID_127_" transform="translate(0 6.279)">
      <g id="XMLID_176_" transform="translate(27.824)">
        <rect id="XMLID_177_" width="1.231" height="1.847" fill="#660500"/>
      </g>
      <g id="XMLID_136_" transform="translate(0 5.54)">
        <path id="XMLID_139_" d="M170.758,57.511h-3.078V56.28h3.57v1.231Zm-6.894-.739a10.443,10.443,0,0,1-3.447-1.847l.739-.985a10.5,10.5,0,0,0,3.078,1.6Zm11.326,0-.369-1.108a14.625,14.625,0,0,0,3.078-1.6l.739.985A30,30,0,0,1,175.191,56.773Zm-17.482-4.555a17.574,17.574,0,0,1-1.847-3.324l1.108-.369a10.917,10.917,0,0,0,1.724,3.078Zm23.638,0-.985-.739a15.135,15.135,0,0,0,1.724-3.078l1.108.369A13.354,13.354,0,0,1,181.346,52.217ZM155,45.077V41.383h1.231v3.57Zm29.055,0-1.231-.123V41.26h1.231v3.816ZM156.231,37.69H155V34h1.231Zm27.824-.123h-1.231V33.874h1.231ZM156.231,30.3H155V26.61h1.231Zm27.824-.123h-1.231V26.487h1.231Zm-27.824-7.264H155V19.223h1.231Zm27.824-.123h-1.231V19.1h1.231Z" transform="translate(-155 -19.1)" fill="#660500"/>
      </g>
      <g id="XMLID_130_">
        <rect id="XMLID_133_" width="1.231" height="1.847" fill="#660500"/>
      </g>
    </g>
  </g>
</svg>
