<svg id="Group_1127" data-name="Group 1127" xmlns="http://www.w3.org/2000/svg" width="33.37" height="21.259" viewBox="0 0 33.37 21.259">
  <path id="Path_389" data-name="Path 389" d="M259.6,242.437a6.636,6.636,0,0,1,11.736,0,8.982,8.982,0,0,0-1.758,5.632,3.986,3.986,0,0,0,.562,2.137H260.8a3.986,3.986,0,0,0,.562-2.137,8.986,8.986,0,0,0-1.762-5.632Z" transform="translate(-248.785 -228.947)" fill="#801c17"/>
  <circle id="Ellipse_41" data-name="Ellipse 41" cx="3.541" cy="3.541" r="3.541" transform="translate(2.037 4.487)" fill="#d19050"/>
  <path id="Path_390" data-name="Path 390" d="M1.883,305C.562,305,0,304.091,0,302.858c0-9.044,11.157-9.044,11.157,0,0,1.233-.562,2.137-1.883,2.137Q5.58,305,1.883,305Z" transform="translate(0 -283.741)" fill="#801c17"/>
  <circle id="Ellipse_42" data-name="Ellipse 42" cx="3.541" cy="3.541" r="3.541" transform="translate(24.25 4.483)" fill="#d19050"/>
  <path id="Path_391" data-name="Path 391" d="M535.083,305.1c-1.321,0-1.883-.908-1.883-2.137,0-9.044,11.157-9.044,11.157,0,0,1.233-.562,2.137-1.883,2.137Z" transform="translate(-510.987 -283.836)" fill="#801c17"/>
  <path id="Path_392" data-name="Path 392" d="M297.287,0A4.487,4.487,0,1,1,292.8,4.487,4.486,4.486,0,0,1,297.287,0Z" transform="translate(-280.602)" fill="#d19050"/>
</svg>
