<svg id="Group_611" data-name="Group 611" xmlns="http://www.w3.org/2000/svg" width="auto" height="20" viewBox="0 0 39.495 33">
  <path id="Path_161" data-name="Path 161" d="M59.362,6.407,57.519,1.668A2.521,2.521,0,0,0,55.017,0H45.363a2.521,2.521,0,0,0-2.5,1.668L41.019,6.407A2.578,2.578,0,0,0,39,9v9.347h3.335V15.052H58v3.291H61.38V9A2.618,2.618,0,0,0,59.362,6.407Zm-16.851,5a1.58,1.58,0,1,1,1.536-1.58A1.537,1.537,0,0,1,42.511,11.41Zm7.68-5.047H42.906l1.4-3.73c.176-.527.439-.922,1.053-.922h9.654c.614,0,.878.395,1.053.922l1.4,3.73Zm7.68,5.047a1.573,1.573,0,0,1-1.58-1.58,1.546,1.546,0,0,1,1.58-1.58,1.58,1.58,0,0,1,0,3.16Z" transform="translate(-21.886)" fill="#d19050"/>
  <path id="Path_162" data-name="Path 162" d="M27.734,42.606H15.973a2.3,2.3,0,0,1-1.448-.614,13.176,13.176,0,0,0-1.755-1.668A7.954,7.954,0,0,0,0,46.687a8.025,8.025,0,0,0,7.987,8.031h.044a7.325,7.325,0,0,0,4.827-1.887,14.54,14.54,0,0,0,1.755-1.975,2.174,2.174,0,0,1,1.448-.7H27.822l3.73-3.774A3.869,3.869,0,0,0,27.734,42.606ZM5.441,49.013a2.326,2.326,0,1,1,2.326-2.326A2.313,2.313,0,0,1,5.441,49.013Z" transform="translate(0 -21.717)" fill="#d19050"/>
</svg>
