<svg xmlns="http://www.w3.org/2000/svg" width="auto" height="75" viewBox="0 0 100.55 98.01">
  <path id="Path_12" data-name="Path 12" d="M78.283,45.4c1.164,0,2.223.106,3.387.212V23.175A12.964,12.964,0,0,0,68.757,10.262H60.5V7.087a3.387,3.387,0,1,0-6.774,0v3.175H30.442V7.087a3.387,3.387,0,1,0-6.774,0v3.175h-8.15A12.987,12.987,0,0,0,2.5,23.175V67.417A12.964,12.964,0,0,0,15.413,80.33H46.848c-.106-1.164-.212-2.223-.212-3.387A31.78,31.78,0,0,1,78.283,45.4ZM9.274,29.843V23.281a6.256,6.256,0,0,1,6.245-6.245h8.15v3.175a3.387,3.387,0,1,0,6.774,0V17.036H53.728v3.175a3.387,3.387,0,1,0,6.774,0V17.036h8.256A6.167,6.167,0,0,1,74.9,23.281v6.562Z" transform="translate(-2.5 -3.7)" fill="#d19050"/>
  <path id="Path_13" data-name="Path 13" d="M75.467,49.5a24.767,24.767,0,1,0,24.767,24.767A24.8,24.8,0,0,0,75.467,49.5Zm9.314,28.154H75.467a3.344,3.344,0,0,1-3.387-3.387V62.73a3.387,3.387,0,1,1,6.774,0v8.15h5.927a3.387,3.387,0,0,1,0,6.774Z" transform="translate(0.316 -1.024)" fill="#d19050"/>
</svg>
