<svg xmlns="http://www.w3.org/2000/svg" width="125" height="125" viewBox="0 0 185.07 185.07">
  <g id="Group_946" data-name="Group 946" transform="translate(1 1)">
    <path id="XMLID_30_" d="M121.8,79.983,91.847,65.618,61.692,79.983V26.6H40.4V88.948H143.192V26.6H121.8Z" transform="translate(-0.261 -0.52)" fill="#801c17"/>
    <path id="XMLID_29_" d="M61.794,96.663l30.053,14.364L121.9,96.663v53.383h21.292V87.8H40.4v62.246H61.794Z" transform="translate(-0.261 0.628)" fill="#d19050"/>
    <rect id="XMLID_28_" width="183.07" height="183.07" transform="translate(0)" fill="none" stroke="#660500" stroke-miterlimit="10" stroke-width="2"/>
    <path id="XMLID_27_" d="M99.3,90.086A10.091,10.091,0,0,0,93.19,96.2l-1.936,5.3c0,.1-.1.2-.2.1a.1.1,0,0,1-.1-.1l-1.834-5.3A10.091,10.091,0,0,0,83,90.086l-5.4-1.834c-.1,0-.2-.1-.1-.2a.1.1,0,0,1,.1-.1l5.3-1.834A10.091,10.091,0,0,0,89.013,80l1.834-5.3c0-.1.1-.2.2-.1a.1.1,0,0,1,.1.1L92.986,80A10.091,10.091,0,0,0,99.1,86.113l5.3,1.834c.1,0,.2.1.1.2a.1.1,0,0,1-.1.1Z" transform="translate(0.434 0.38)" fill="#fff"/>
  </g>
</svg>
