<svg xmlns="http://www.w3.org/2000/svg" width="auto" height="75" viewBox="0 0 69.932 119.721">
  <path id="Path_19" data-name="Path 19" d="M43.744,14.711a2.581,2.581,0,0,0,2.644-2.644V5.144a2.644,2.644,0,1,0-5.287,0v6.924A2.659,2.659,0,0,0,43.744,14.711Z" transform="translate(-17.37 -2.5)" fill="#d19050"/>
  <path id="Path_20" data-name="Path 20" d="M34.465,17.042a2.738,2.738,0,0,0,3.777,0,2.738,2.738,0,0,0,0-3.777l-4.91-4.91a2.671,2.671,0,0,0-3.777,3.777Z" transform="translate(-20.554 -1.18)" fill="#d19050"/>
  <path id="Path_21" data-name="Path 21" d="M52.144,17.8a2.776,2.776,0,0,0,1.888-.755l4.91-4.91a2.671,2.671,0,1,0-3.777-3.777l-4.91,4.91a2.738,2.738,0,0,0,0,3.777A2.776,2.776,0,0,0,52.144,17.8Z" transform="translate(-15.195 -1.18)" fill="#d19050"/>
  <path id="Path_22" data-name="Path 22" d="M26.47,56.889h9.316V51.476H29.113V25.039h38.27V51.476H60.837v5.413h9.316a2.794,2.794,0,0,0,2.77-2.77V22.27a2.794,2.794,0,0,0-2.77-2.77H26.47a2.715,2.715,0,0,0-2.77,2.77V54.12A2.794,2.794,0,0,0,26.47,56.889Z" transform="translate(-21.875 1.901)" fill="#d19050"/>
  <path id="Path_23" data-name="Path 23" d="M92.182,73.655A6.672,6.672,0,0,0,79.844,70.13V70a6.672,6.672,0,0,0-12.337-3.525v-.126A6.672,6.672,0,0,0,55.17,62.829V40.546a6.588,6.588,0,0,0-2.014-4.658A6.465,6.465,0,0,0,48.5,34h0a6.716,6.716,0,0,0-6.672,6.672v41.04a.947.947,0,0,1-.629.881.789.789,0,0,1-1.007-.252l-6.42-6.8a6.684,6.684,0,0,0-8.56-.755,6.417,6.417,0,0,0-2.9,4.658,6.768,6.768,0,0,0,1.511,5.287L40.567,105a24.735,24.735,0,0,0,19.261,9.064H70.277a21.921,21.921,0,0,0,21.9-21.9Z" transform="translate(-22.25 5.655)" fill="#d19050"/>
</svg>
