<svg id="XMLID_27_" xmlns="http://www.w3.org/2000/svg" width="120" height="55" viewBox="0 0 157.3 83.2" >
  <g id="XMLID_49_" align="left">
    <path id="XMLID_50_" d="M29.6,37.5H23.4V20.6H6.1V37.5H0V0H6.1V15.3H23.4V0h6.2V37.5Z" fill="#660500"/>
  </g>
  <g id="XMLID_45_">
    <path id="XMLID_46_" d="M49.1,38c-4.4,0-7.9-1.3-10.3-3.9C36.2,31.6,35,28,35,23.5c0-4.6,1.2-8.3,3.5-10.9a12.145,12.145,0,0,1,9.5-4A11.755,11.755,0,0,1,56.9,12c2.2,2.3,3.3,5.4,3.3,9.4v3.3h-19c.1,2.8.8,4.9,2.2,6.3a7.7,7.7,0,0,0,5.9,2.2,23.353,23.353,0,0,0,4.7-.5,21.788,21.788,0,0,0,4.7-1.6V36a19.827,19.827,0,0,1-4.5,1.5A25.917,25.917,0,0,1,49.1,38ZM48,13.2A6.177,6.177,0,0,0,43.4,15c-1.2,1.2-1.8,3-2.1,5.3H54.2A7.66,7.66,0,0,0,52.5,15,5.8,5.8,0,0,0,48,13.2Z" fill="#660500"/>
  </g>
  <g id="XMLID_42_">
    <path id="XMLID_43_" d="M60.5,9.1h6.6l5.8,16.1a24.089,24.089,0,0,1,1.7,6.5h.2c.2-.9.4-2.1.8-3.4s2.6-7.7,6.5-19.1h6.5l-12.1,32c-2.2,5.9-5.9,8.8-11,8.8a17.223,17.223,0,0,1-3.9-.4V44.8a14.162,14.162,0,0,0,3.1.3c2.9,0,4.9-1.7,6.1-5.1l1.1-2.7Z" fill="#660500"/>
  </g>
  <g id="XMLID_28_">
    <path id="XMLID_40_" d="M20.9,82.7H0V45.8H20.8v5.1H6.1v10H20v5H6.1V77.5H20.9Z" fill="#d19050"/>
    <path id="XMLID_38_" d="M34.6,82.7,24,54.8h6.2L35.9,71a30.256,30.256,0,0,1,1.8,6.6h.2A43.107,43.107,0,0,1,39.7,71l5.7-16.2h6.3L41,82.7Z" fill="#d19050"/>
    <path id="XMLID_35_" d="M68,83.2c-4.3,0-7.7-1.3-10.2-3.8-2.4-2.5-3.7-6-3.7-10.4,0-4.6,1.1-8.1,3.4-10.7a11.791,11.791,0,0,1,9.3-3.9c3.7,0,6.6,1.1,8.7,3.4,2.1,2.2,3.2,5.3,3.2,9.2v3.2H60.3c.1,2.7.8,4.8,2.2,6.2a7.468,7.468,0,0,0,5.8,2.2,22.356,22.356,0,0,0,4.6-.5,27.108,27.108,0,0,0,4.6-1.5v4.8a17.609,17.609,0,0,1-4.4,1.5C71.6,83,69.9,83.2,68,83.2ZM66.9,58.8a5.8,5.8,0,0,0-4.5,1.8,8.539,8.539,0,0,0-2,5.2H73a7.389,7.389,0,0,0-1.7-5.2A5.446,5.446,0,0,0,66.9,58.8Z" fill="#d19050"/>
    <path id="XMLID_33_" d="M110.1,82.7h-5.9V65.5c0-2.2-.4-3.8-1.3-4.8a4.877,4.877,0,0,0-4.1-1.6c-2.5,0-4.3.7-5.5,2.2s-1.7,4-1.7,7.4V82.6H85.7V54.8h4.6l.8,3.7h.3A7.878,7.878,0,0,1,95,55.4a12.273,12.273,0,0,1,5.1-1.1c6.7,0,10,3.4,10,10.2Z" fill="#d19050"/>
    <path id="XMLID_31_" d="M128.7,78.4a12.91,12.91,0,0,0,4.3-.7v4.5a12.64,12.64,0,0,1-2.5.7,16.551,16.551,0,0,1-3.2.3c-5.6,0-8.4-3-8.4-8.9v-15h-3.8V56.7l4.1-2.2,2-5.9h3.7v6.2h7.9v4.5h-7.9V74.2a4.421,4.421,0,0,0,1.1,3.2A3.7,3.7,0,0,0,128.7,78.4Z" fill="#d19050"/>
    <path id="XMLID_29_" d="M157.3,74.7a7.422,7.422,0,0,1-3,6.3c-2,1.5-4.8,2.2-8.5,2.2a20.135,20.135,0,0,1-8.9-1.7V76.4a22.2,22.2,0,0,0,9.1,2.3c3.6,0,5.5-1.1,5.5-3.3a2.792,2.792,0,0,0-.6-1.8,6.9,6.9,0,0,0-2-1.5,26.014,26.014,0,0,0-3.9-1.7c-3.2-1.2-5.4-2.5-6.5-3.7a7.029,7.029,0,0,1-1.7-4.8,6.577,6.577,0,0,1,2.9-5.6,13.632,13.632,0,0,1,7.8-2,22.512,22.512,0,0,1,9.3,2l-1.9,4.5a21.54,21.54,0,0,0-7.6-1.9c-3.1,0-4.7.9-4.7,2.7a2.63,2.63,0,0,0,1.2,2.2,30.065,30.065,0,0,0,5.3,2.5,26.123,26.123,0,0,1,5,2.4,7.11,7.11,0,0,1,2.3,2.6A5.429,5.429,0,0,1,157.3,74.7Z" fill="#d19050"/>
  </g>
</svg>
