<svg xmlns="http://www.w3.org/2000/svg" width="300" height="300" viewBox="40 0 513.765 513.765">
  <g id="Group_947" data-name="Group 947" transform="translate(1 1)">
    <g id="Group_946" data-name="Group 946" transform="translate(0 0)">
      <path id="XMLID_30_" d="M267.946,175.829l-83.728-40.155-84.3,40.155V26.6H40.4V200.89H327.751V26.6H267.946Z" transform="translate(71.807 46.306)" fill="#801c17"/>
      <path id="XMLID_29_" d="M100.206,112.577l84.013,40.155,84.013-40.155V261.806h59.521V87.8H40.4V261.806h59.806Z" transform="translate(71.807 159.396)" fill="#d19050"/>
      <rect id="XMLID_28_" width="511.765" height="511.765" transform="translate(0)" fill="none" stroke="#660500" stroke-miterlimit="10" stroke-width="2"/>
      <path id="XMLID_27_" d="M138.521,117.964a28.209,28.209,0,0,0-17.087,17.087l-5.411,14.809c0,.285-.285.57-.57.285a.279.279,0,0,1-.285-.285l-5.126-14.809a28.209,28.209,0,0,0-17.087-17.087l-15.094-5.126c-.285,0-.57-.285-.285-.57a.279.279,0,0,1,.285-.285l14.809-5.126A28.209,28.209,0,0,0,109.758,89.77l5.126-14.809c0-.285.285-.57.57-.285a.279.279,0,0,1,.285.285l5.126,14.809a28.209,28.209,0,0,0,17.087,17.087l14.809,5.126c.285,0,.57.285.285.57a.279.279,0,0,1-.285.285Z" transform="translate(140.287 134.928)" fill="#fff"/>
    </g>
  </g>
</svg>
