<svg xmlns="http://www.w3.org/2000/svg" width="auto" height="150" viewBox="0 0 253.322 248.124">
  <g id="XMLID_27_" transform="translate(22.092)">
    <path id="XMLID_28_" d="M185.21,133.218a81.967,81.967,0,0,0-51.993,51.993l-15.05,45.151c0,1.368-1.368,1.368-2.736,1.368a1.34,1.34,0,0,1-1.368-1.368L99.012,185.21A81.967,81.967,0,0,0,47.02,133.218L1.868,118.167C.5,116.8.5,116.8.5,115.431a1.34,1.34,0,0,1,1.368-1.368L47.02,99.012A81.967,81.967,0,0,0,99.012,47.02l15.05-45.151C114.063.5,115.431.5,116.8.5a1.34,1.34,0,0,1,1.368,1.368l15.05,45.151A81.967,81.967,0,0,0,185.21,99.012l45.151,15.05c1.368,0,1.368,1.368,1.368,2.736a1.34,1.34,0,0,1-1.368,1.368Z" transform="translate(-0.5 -0.5)" fill="#fff"/>
  </g>
  <g id="XMLID_27_2" data-name="XMLID_27_" transform="translate(0 145.543)">
    <path id="XMLID_28_2" data-name="XMLID_28_" d="M82.444,59.378A36.363,36.363,0,0,0,59.378,82.444L52.7,102.474c0,.607-.607.607-1.214.607a.594.594,0,0,1-.607-.607L44.2,82.444A36.363,36.363,0,0,0,21.138,59.378L1.107,52.7C.5,52.094.5,52.094.5,51.487a.594.594,0,0,1,.607-.607L21.138,44.2A36.363,36.363,0,0,0,44.2,21.138L50.88,1.107C50.88.5,51.487.5,52.094.5a.594.594,0,0,1,.607.607l6.677,20.031A36.363,36.363,0,0,0,82.444,44.2l20.031,6.677c.607,0,.607.607.607,1.214a.594.594,0,0,1-.607.607Z" transform="translate(-0.5 -0.5)" fill="#d19050"/>
  </g>
</svg>
